<?xml version="1.0" encoding="iso-8859-1"?>
<!-- Generator: Adobe Illustrator 18.1.1, SVG Export Plug-In . SVG Version: 6.00 Build 0)  -->
<svg version="1.1" id="Capa_1" xmlns="http://www.w3.org/2000/svg" xmlns:xlink="http://www.w3.org/1999/xlink" x="0px" y="0px"
	 viewBox="0 0 611.998 611.998" style="enable-background:new 0 0 611.998 611.998;" xml:space="preserve">
<g>
	<path d="M539.776,131.64c-46.571-46.573-108.494-72.221-174.359-72.221S237.632,85.068,191.058,131.64
		c-96.142,96.142-96.142,252.575,0,348.718c46.573,46.573,108.494,72.221,174.359,72.221s127.786-25.648,174.359-72.221
		c46.574-46.573,72.223-108.494,72.223-174.359S586.352,178.213,539.776,131.64z M375.169,405.983
		c-12.849,11.452-28.27,18.565-40.247,18.565c-3.901,0-9.259-0.794-12.626-4.57c-3.823-4.287-4.311-11.821-1.337-20.669
		c3.484-10.375,11.047-21.12,21.292-30.252c12.849-11.452,28.27-18.565,40.247-18.565c3.901,0,9.259,0.794,12.626,4.568
		C404.823,365.942,392.391,390.63,375.169,405.983z M315.648,433.363c5.126,3.72,11.674,5.68,19.274,5.68
		c15.617,0,34.268-8.313,49.89-22.24c23.566-21.006,33.496-48.135,25.096-65.431c0.069-0.069,0.138-0.134,0.205-0.203l0.245-0.245
		c56.354-56.355,104.89-119.767,140.932-183.964c9.652,12.849,17.879,26.565,24.597,40.957
		c-35.262,61.327-80.521,119.83-134.614,173.92c-54.098,54.099-112.607,99.362-173.935,134.623
		c-14.394-6.719-28.111-14.945-40.961-24.599C256.555,474.924,286.513,455.29,315.648,433.363z M466.754,97.09
		c-35.38,61.735-80.828,120.58-135.241,174.991c-54.389,54.389-113.209,99.824-174.915,135.197
		c-5.757-11.897-10.44-24.186-14.05-36.725c56.493-34.46,110.419-77.182,160.338-127.099
		c49.957-49.957,92.703-103.921,127.17-160.452C442.684,86.644,454.953,91.355,466.754,97.09z M201.31,141.89
		c43.835-43.835,102.116-67.977,164.109-67.977c7.242,0,14.43,0.342,21.555,0.995c-31.234,48.087-68.655,94.211-111.341,137.176
		c-2.821,2.839-2.807,7.429,0.034,10.25c1.413,1.404,3.262,2.107,5.108,2.107c1.863,0,3.725-0.714,5.142-2.14
		c44.565-44.857,84.642-94.977,116.958-145.384c4.187,0.676,8.346,1.459,12.472,2.359
		c-33.458,54.163-74.692,105.911-122.709,153.927c-47.981,47.981-99.69,89.192-153.82,122.642
		C122.504,281.132,143.335,199.864,201.31,141.89z M163.322,420.13c62.996-36.051,123.004-82.362,178.439-137.797
		c55.457-55.457,101.781-115.487,137.837-178.506c18.062,10.238,34.849,22.985,49.928,38.064c4.164,4.164,8.148,8.46,11.953,12.874
		c-35.656,64.768-84.421,128.944-141.318,185.854c-4.865-3.019-10.834-4.622-17.665-4.622c-15.617,0-34.269,8.313-49.892,22.24
		c-12.097,10.783-21.113,23.731-25.389,36.457c-3.457,10.294-3.575,19.665-0.495,27.248c-30.198,22.709-61.277,42.902-92.54,60.113
		c-4.414-3.803-8.708-7.786-12.872-11.95C186.08,454.876,173.426,438.034,163.322,420.13z M529.527,470.106
		c-43.835,43.835-102.116,67.977-164.109,67.977c-15.161,0-30.098-1.453-44.659-4.276c18.864-11.87,37.661-24.833,55.998-38.625
		c3.2-2.406,3.841-6.951,1.435-10.149c-2.406-3.2-6.952-3.84-10.149-1.435c-19.855,14.934-46.393,32.45-67.363,45.368
		c-5.606-1.62-11.142-3.448-16.596-5.487c58.968-35.049,115.237-79.19,167.435-131.388c52.192-52.19,96.333-108.454,131.381-167.423
		c2.049,5.485,3.887,11.051,5.512,16.69c-23.941,38.799-55.866,83.002-87.51,118.944c-2.645,3.004-2.356,7.585,0.649,10.228
		c1.379,1.212,3.086,1.808,4.787,1.808c2.009,0,4.012-0.832,5.443-2.459c30.673-34.837,58.031-71.308,81.446-108.536
		c2.821,14.559,4.276,29.493,4.276,44.652C597.504,367.99,573.364,426.271,529.527,470.106z"/>
	<path d="M42.824,195.905C19.212,195.905,0,215.115,0,238.727s19.212,42.822,42.824,42.822s42.822-19.21,42.822-42.822
		S66.435,195.905,42.824,195.905z M42.824,267.053c-15.619,0-28.328-12.707-28.328-28.326S27.205,210.4,42.824,210.4
		s28.326,12.707,28.326,28.326S58.443,267.053,42.824,267.053z"/>
	<path d="M337.815,406.147c-4.829-5.418,0.615-18.151,12.159-28.441c11.544-10.29,24.817-14.24,29.646-8.822
		c4.829,5.417-0.615,18.151-12.159,28.441C355.916,407.615,342.644,411.565,337.815,406.147z"/>
</g>
<g>
</g>
<g>
</g>
<g>
</g>
<g>
</g>
<g>
</g>
<g>
</g>
<g>
</g>
<g>
</g>
<g>
</g>
<g>
</g>
<g>
</g>
<g>
</g>
<g>
</g>
<g>
</g>
<g>
</g>
</svg>
