<?xml version="1.0"?>
<svg xmlns="http://www.w3.org/2000/svg" xmlns:xlink="http://www.w3.org/1999/xlink" version="1.1" id="Capa_1" x="0px" y="0px" viewBox="0 0 511.999 511.999" style="enable-background:new 0 0 511.999 511.999;" xml:space="preserve" width="512px" height="512px" class=""><g><g>
	<g>
		<path d="M474.002,289.032c-6.853,0-13.28,1.832-18.837,5.019l-68.787-68.786c3.187-5.557,5.02-11.985,5.02-18.837    c0-20.952-17.046-37.998-37.998-37.998c-6.672,0-12.943,1.734-18.398,4.767l-30.214-31.034c3.345-5.656,5.273-12.245,5.273-19.279    c0-20.952-17.046-37.998-37.998-37.998c-9.488,0-18.167,3.504-24.833,9.275l-37.415-25.13c1.668-4.274,2.595-8.917,2.595-13.773    c0-20.952-17.046-37.998-37.998-37.998c-15.464,0-28.791,9.291-34.716,22.579l-64.124-7.5    C72.824,14.067,57.022,0.013,37.998,0.013C17.046,0.013,0,17.059,0,38.011c0,20.952,17.046,37.998,37.998,37.998    c15.937,0,29.605-9.867,35.239-23.809l63.434,7.419c2.172,18.904,18.264,33.636,37.74,33.636c8.854,0,17.003-3.052,23.471-8.149    l38.181,25.645c-1.289,3.813-1.999,7.891-1.999,12.133c0,20.952,17.046,37.998,37.998,37.998c6.672,0,12.943-1.734,18.398-4.766    l30.214,31.034c-3.345,5.656-5.273,12.245-5.273,19.279c0,7.48,2.181,14.454,5.928,20.341l-50.536,50.536    c-3.905,3.905-3.905,10.237,0,14.142c1.953,1.953,4.512,2.929,7.071,2.929c2.559,0,5.118-0.976,7.071-2.929l51.19-51.19    c5.187,2.66,11.055,4.171,17.273,4.171c6.853,0,13.28-1.832,18.837-5.019l68.787,68.786c-3.187,5.557-5.02,11.985-5.02,18.837    c0,20.952,17.046,37.998,37.998,37.998s37.998-17.046,37.998-37.998C511.999,306.081,494.955,289.032,474.002,289.032z     M37.998,56.01c-9.925,0-17.999-8.075-17.999-17.999c0-9.925,8.075-17.999,17.999-17.999c9.924,0,17.999,8.075,17.999,17.999    C55.997,47.935,47.923,56.01,37.998,56.01z M174.411,73.256c-9.925,0-17.999-8.075-17.999-17.999    c0-9.925,8.075-17.999,17.999-17.999c9.924,0,17.999,8.075,17.999,17.999C192.411,65.181,184.336,73.256,174.411,73.256z     M272.063,140.884c-9.924,0-17.999-8.075-17.999-17.999c0-9.925,8.075-17.999,17.999-17.999s17.999,8.075,17.999,17.999    C290.062,132.809,281.987,140.884,272.063,140.884z M353.4,224.428c-9.924,0-17.999-8.075-17.999-17.999    s8.075-17.999,17.999-17.999s17.999,8.075,17.999,17.999S363.324,224.428,353.4,224.428z M474.002,345.03    c-9.924,0-17.999-8.075-17.999-17.999s8.075-17.999,17.999-17.999s17.999,8.075,17.999,17.999S483.926,345.03,474.002,345.03z" data-original="#000000" class="active-path" data-old_color="#ffffff" fill="#ffffff"/>
	</g>
</g><g>
	<g>
		<path d="M412.082,388.952c-3.905-3.904-10.234-3.905-14.142,0l-52.058,52.058c-5.557-3.187-11.985-5.019-18.837-5.019    s-13.28,1.832-18.837,5.019l-68.785-68.786c3.187-5.557,5.019-11.985,5.019-18.837c0-20.952-17.046-37.998-37.998-37.998    c-20.952,0-37.998,17.046-37.998,37.998c0,20.952,17.046,37.998,37.998,37.998c6.853,0,13.28-1.832,18.837-5.019l68.785,68.786    c-3.187,5.557-5.019,11.985-5.019,18.837c0,20.952,17.046,37.998,37.998,37.998c20.952,0,37.998-17.046,37.998-37.998    c0-6.852-1.833-13.28-5.019-18.837l52.058-52.058C415.987,399.189,415.987,392.857,412.082,388.952z M206.442,371.386    c-9.924,0-17.999-8.075-17.999-17.999c0-9.924,8.075-17.999,17.999-17.999s17.999,8.075,17.999,17.999    C224.441,363.312,216.366,371.386,206.442,371.386z M327.044,491.988c-9.924,0-17.999-8.075-17.999-17.999    s8.075-17.999,17.999-17.999s17.999,8.075,17.999,17.999S336.968,491.988,327.044,491.988z" data-original="#000000" class="active-path" data-old_color="#ffffff" fill="#ffffff"/>
	</g>
</g><g>
	<g>
		<path d="M435.527,365.719c-3.847-3.964-10.186-4.051-14.149-0.204c-3.963,3.847-4.058,10.177-0.211,14.14    c1.961,2.021,4.567,3.035,7.177,3.035c2.509,0,5.021-0.939,6.964-2.824l0.017-0.016    C439.287,376.003,439.373,369.681,435.527,365.719z" data-original="#000000" class="active-path" data-old_color="#ffffff" fill="#ffffff"/>
	</g>
</g><g>
	<g>
		<path d="M262.367,299.878c-1.86-1.87-4.44-2.93-7.07-2.93c-2.63,0-5.21,1.06-7.069,2.93c-1.87,1.86-2.931,4.43-2.931,7.07    c0,2.63,1.061,5.21,2.931,7.07c1.859,1.86,4.439,2.93,7.069,2.93c2.63,0,5.21-1.07,7.07-2.93c1.86-1.86,2.93-4.44,2.93-7.07    C265.297,304.308,264.228,301.738,262.367,299.878z" data-original="#000000" class="active-path" data-old_color="#ffffff" fill="#ffffff"/>
	</g>
</g><g>
	<g>
		<path d="M509.045,35.92L476.067,2.94c-1.876-1.875-4.419-2.929-7.071-2.929c-2.652,0-5.195,1.054-7.071,2.929L428.947,35.92    c-3.905,3.905-3.905,10.237,0,14.141l32.977,32.979c1.876,1.875,4.419,2.929,7.071,2.929c2.652,0,5.195-1.054,7.071-2.929    l32.979-32.979c1.875-1.875,2.929-4.419,2.929-7.071S510.92,37.795,509.045,35.92z M468.996,61.829l-18.838-18.838l18.838-18.838    l18.838,18.838L468.996,61.829z" data-original="#000000" class="active-path" data-old_color="#ffffff" fill="#ffffff"/>
	</g>
</g><g>
	<g>
		<path d="M83.028,461.938l-32.977-32.979c-1.876-1.875-4.419-2.929-7.071-2.929c-2.652,0-5.195,1.054-7.071,2.929l-32.98,32.978    C1.054,463.813,0,466.356,0,469.009s1.054,5.196,2.929,7.071l32.979,32.979c1.876,1.875,4.419,2.929,7.071,2.929    c2.652,0,5.195-1.054,7.071-2.929l32.978-32.979C86.933,472.174,86.933,465.843,83.028,461.938z M42.979,487.847l-18.838-18.838    l18.838-18.838l18.838,18.838L42.979,487.847z" data-original="#000000" class="active-path" data-old_color="#ffffff" fill="#ffffff"/>
	</g>
</g><g>
	<g>
		<path d="M147.66,246.128H133.66v-14.386c0-5.523-4.478-10-10-10s-10,4.477-10,10v14.386H99.662c-5.522,0-10,4.477-10,10    c0,5.523,4.478,10,10,10h13.999v14.386c0,5.523,4.478,10,10,10s10-4.477,10-10v-14.386h13.999c5.522,0,10-4.477,10-10    C157.659,250.604,153.182,246.128,147.66,246.128z" data-original="#000000" class="active-path" data-old_color="#ffffff" fill="#ffffff"/>
	</g>
</g><g>
	<g>
		<path d="M488.045,158.934c-1.859-1.86-4.439-2.93-7.069-2.93s-5.21,1.071-7.07,2.93c-1.86,1.86-2.93,4.44-2.93,7.07    s1.069,5.21,2.93,7.07s4.44,2.93,7.07,2.93s5.21-1.07,7.069-2.93c1.86-1.86,2.931-4.44,2.931-7.07    S489.906,160.794,488.045,158.934z" data-original="#000000" class="active-path" data-old_color="#ffffff" fill="#ffffff"/>
	</g>
</g><g>
	<g>
		<path d="M17.068,158.935c-1.859-1.86-4.439-2.93-7.069-2.93s-5.21,1.07-7.07,2.93c-1.86,1.86-2.93,4.44-2.93,7.07    s1.069,5.21,2.93,7.07c1.861,1.86,4.44,2.93,7.07,2.93s5.21-1.07,7.069-2.93c1.86-1.86,2.931-4.44,2.931-7.07    S18.929,160.795,17.068,158.935z" data-original="#000000" class="active-path" data-old_color="#ffffff" fill="#ffffff"/>
	</g>
</g><g>
	<g>
		<path d="M150.733,440.921c-1.86-1.86-4.44-2.93-7.07-2.93s-5.21,1.07-7.07,2.93c-1.87,1.86-2.93,4.44-2.93,7.07    s1.06,5.21,2.93,7.07c1.86,1.86,4.43,2.93,7.07,2.93c2.63,0,5.21-1.07,7.07-2.93c1.859-1.86,2.93-4.44,2.93-7.07    S152.593,442.781,150.733,440.921z" data-original="#000000" class="active-path" data-old_color="#ffffff" fill="#ffffff"/>
	</g>
</g></g> </svg>
