<svg xmlns="http://www.w3.org/2000/svg" height="881.25pt" version="1.1" viewBox="0 0 881.25 881.25" width="881.25pt">
<g id="surface1">
<path fill="#fff" d="M 440.625 0 C 197.273438 0 0 197.273438 0 440.625 C 0 683.976562 197.273438 881.25 440.625 881.25 C 683.976562 881.25 881.25 683.976562 881.25 440.625 C 880.976562 197.386719 683.863281 0.273438 440.625 0 Z M 376 34.5 C 366.777344 44.117188 357.808594 53.949219 349.078125 63.992188 L 305.5 114.226562 C 269.71875 155.511719 229.628906 192.867188 185.933594 225.660156 C 129.144531 268.242188 78.316406 318.238281 34.796875 374.3125 C 63.667969 199.472656 201.050781 62.65625 376 34.5 Z M 29.375 440.625 C 29.375 437.378906 29.550781 434.1875 29.628906 430.960938 L 36.21875 421.605469 C 82.578125 355.6875 139.03125 297.484375 203.511719 249.144531 C 248.898438 215.113281 290.523438 176.328125 327.679688 133.46875 L 371.195312 83.234375 C 387.351562 64.644531 404.492188 46.6875 422.207031 29.84375 C 428.320312 29.566406 434.453125 29.375 440.625 29.375 C 503.65625 29.320312 565.84375 43.847656 622.324219 71.820312 L 594.570312 89.917969 C 514.023438 142.304688 445.351562 210.976562 392.964844 291.515625 C 342.8125 368.652344 277.046875 434.417969 199.914062 484.570312 C 149.214844 517.8125 103.105469 557.578125 62.792969 602.859375 C 40.699219 551.632812 29.328125 496.414062 29.375 440.625 Z M 851.875 440.625 C 851.617188 667.648438 667.648438 851.617188 440.625 851.875 C 433.09375 851.875 425.59375 851.640625 418.167969 851.246094 C 463.085938 789.449219 516.988281 734.710938 578.082031 688.84375 C 623.46875 654.804688 665.09375 616.019531 702.25 573.148438 L 745.789062 522.921875 C 769.722656 495.320312 795.585938 469.460938 823.1875 445.53125 L 851.371094 421.09375 C 851.683594 427.570312 851.875 434.078125 851.875 440.625 Z M 810.488281 260.996094 C 829.539062 300.101562 842.21875 342.011719 848.027344 385.117188 L 803.964844 423.3125 C 775.316406 448.164062 748.476562 475.007812 723.628906 503.664062 L 680.03125 553.910156 C 644.257812 595.195312 604.175781 632.558594 560.472656 665.34375 C 493.523438 715.527344 434.902344 775.945312 386.765625 844.382812 L 384.28125 847.925781 C 344.195312 842.40625 305.152344 830.957031 268.433594 813.953125 L 333.402344 720.777344 C 394.453125 632.964844 472.585938 558.390625 563.144531 501.507812 C 657.78125 442.0625 739.335938 363.984375 802.851562 272.027344 Z M 778.707031 255.296875 C 717.441406 344 638.769531 419.3125 547.480469 476.640625 C 453.59375 535.621094 372.578125 612.945312 309.277344 703.976562 L 241.960938 800.554688 C 171.558594 761.515625 114.0625 702.78125 76.519531 631.5625 C 116.996094 584.417969 163.921875 543.210938 215.90625 509.171875 C 296.480469 456.792969 365.179688 388.125 417.578125 307.570312 C 467.730469 230.460938 533.492188 164.703125 610.605469 114.5625 L 651.601562 87.832031 C 710.585938 123.265625 759.808594 172.832031 794.828125 232.0625 Z M 778.707031 255.296875 " style=" stroke:none;fill-rule:nonzero;fill-opacity:1;" />
<path fill="#fff" d="M 236.777344 380.097656 C 261.113281 380.097656 280.839844 360.371094 280.839844 336.035156 C 280.839844 311.699219 261.113281 291.972656 236.777344 291.972656 C 212.445312 291.972656 192.714844 311.699219 192.714844 336.035156 C 192.714844 360.371094 212.445312 380.097656 236.777344 380.097656 Z M 236.777344 321.347656 C 244.890625 321.347656 251.464844 327.925781 251.464844 336.035156 C 251.464844 344.144531 244.890625 350.722656 236.777344 350.722656 C 228.667969 350.722656 222.089844 344.144531 222.089844 336.035156 C 222.089844 327.925781 228.667969 321.347656 236.777344 321.347656 Z M 236.777344 321.347656 " style=" stroke:none;fill-rule:nonzero;fill-opacity:1;" />
<path fill="#fff" d="M 119.277344 365.410156 L 148.652344 365.410156 L 148.652344 394.78125 L 119.277344 394.78125 Z M 119.277344 365.410156 " style=" stroke:none;fill-rule:nonzero;fill-opacity:1;" />
<path fill="#fff" d="M 324.902344 189.160156 L 354.277344 189.160156 L 354.277344 218.535156 L 324.902344 218.535156 Z M 324.902344 189.160156 " style=" stroke:none;fill-rule:nonzero;fill-opacity:1;" />
<path fill="#fff" d="M 515.839844 306.660156 L 545.214844 306.660156 L 545.214844 336.035156 L 515.839844 336.035156 Z M 515.839844 306.660156 " style=" stroke:none;fill-rule:nonzero;fill-opacity:1;" />
<path fill="#fff" d="M 354.277344 453.535156 C 321.832031 453.535156 295.527344 479.839844 295.527344 512.285156 C 295.527344 544.730469 321.832031 571.039062 354.277344 571.039062 C 386.722656 571.039062 413.03125 544.730469 413.03125 512.285156 C 413.03125 479.839844 386.722656 453.535156 354.277344 453.535156 Z M 354.277344 541.660156 C 338.054688 541.660156 324.902344 528.511719 324.902344 512.285156 C 324.902344 496.0625 338.054688 482.910156 354.277344 482.910156 C 370.503906 482.910156 383.652344 496.0625 383.652344 512.285156 C 383.652344 528.511719 370.503906 541.660156 354.277344 541.660156 Z M 354.277344 541.660156 " style=" stroke:none;fill-rule:nonzero;fill-opacity:1;" />
<path fill="#fff" d="M 750.839844 600.410156 L 780.214844 600.410156 L 780.214844 629.785156 L 750.839844 629.785156 Z M 750.839844 600.410156 " style=" stroke:none;fill-rule:nonzero;fill-opacity:1;" />
<path fill="#fff" d="M 677.402344 233.222656 L 706.777344 233.222656 L 706.777344 262.597656 L 677.402344 262.597656 Z M 677.402344 233.222656 " style=" stroke:none;fill-rule:nonzero;fill-opacity:1;" />
<path fill="#fff" d="M 559.902344 761.972656 L 589.277344 761.972656 L 589.277344 791.347656 L 559.902344 791.347656 Z M 559.902344 761.972656 " style=" stroke:none;fill-rule:nonzero;fill-opacity:1;" />
<path fill="#fff" d="M 222.089844 688.535156 L 251.464844 688.535156 L 251.464844 717.910156 L 222.089844 717.910156 Z M 222.089844 688.535156 " style=" stroke:none;fill-rule:nonzero;fill-opacity:1;" />
<path fill="#fff" d="M 574.589844 541.660156 L 603.960938 541.660156 L 603.960938 571.035156 L 574.589844 571.035156 Z M 574.589844 541.660156 " style=" stroke:none;fill-rule:nonzero;fill-opacity:1;" />
</g>
</svg>