<?xml version="1.0" encoding="iso-8859-1"?>
<!-- Generator: Adobe Illustrator 19.0.0, SVG Export Plug-In . SVG Version: 6.00 Build 0)  -->
<svg version="1.1" id="Capa_1" xmlns="http://www.w3.org/2000/svg" xmlns:xlink="http://www.w3.org/1999/xlink" x="0px" y="0px"
	 viewBox="0 0 512 512" style="enable-background:new 0 0 512 512;" xml:space="preserve">
<g>
	<g>
		<path fill="#607D8B" d="M437.018,74.98C388.666,26.629,324.38,0,256,0S123.334,26.629,74.982,74.98C26.63,123.332,0.001,187.619,0.001,255.998
			S26.63,388.665,74.982,437.017c48.332,48.331,112.583,74.957,180.931,74.979c0.028,0,0.056,0.004,0.084,0.004
			c0.016,0,0.031-0.003,0.047-0.003c68.364-0.011,132.633-26.639,180.975-74.98c48.352-48.353,74.98-112.639,74.98-181.019
			S485.371,123.332,437.018,74.98z M271.048,491.504l4.086-10.072c8.464-20.866,28.483-34.349,51.001-34.349h68.194
			C359.241,472.553,316.905,488.603,271.048,491.504z M418.372,427.102c-0.125-0.005-0.247-0.019-0.372-0.019h-91.864
			c-30.7,0-57.994,18.382-69.534,46.831l-7.295,17.982c-110.329-3.087-201.952-82.268-224.156-186.81
			c47.539-0.207,76.653,0.439,110.112,52.332c19.164,29.72,47.003,47.32,80.509,50.899c4.499,0.48,8.93,0.698,13.279,0.698
			c28.917-0.001,53.945-9.653,67.249-15.988c36.552-17.404,117.057-17.5,149.29,3.35
			C437.413,407.391,428.303,417.674,418.372,427.102z M474.405,320.097c-12.988-14-32.975-21.099-59.404-21.099h-94.464
			c-30.688,0-52.063-25.914-59.241-36.039c5.672-11.892,25.348-44.44,70.706-44.44h115.999c5.523,0,10-4.478,10-10s-4.477-10-10-10
			H332.002c-36.197,0-59.144,16.862-72.02,31.009c-13.86,15.227-19.219,30.584-19.44,31.23c-0.939,2.742-0.643,5.757,0.813,8.264
			c1.186,2.04,29.604,49.977,79.182,49.977h94.464c20.492,0,35.481,4.877,44.552,14.497c8.244,8.743,9.501,19.494,9.668,23.6
			c-3.725,7.824-7.87,15.41-12.402,22.733c-22.513-14.766-56.412-18.48-76.282-19.316c-35.404-1.492-70.977,4.049-92.834,14.458
			c-14.989,7.137-91.972,39.314-135.629-28.391c-39.914-61.9-79.315-61.707-129.211-61.484c-0.351,0.001-0.711,0.003-1.064,0.004
			c-1.178-9.539-1.795-19.249-1.795-29.101C20.001,125.868,125.871,20,256,20c87.993,0,164.883,48.416,205.458,119.999H331.834
			c-45.696,0-69.532,19.368-90.561,36.456c-20.086,16.321-37.434,30.417-72.271,30.417H95.668c-5.523,0-10,4.478-10,10
			s4.477,10,10,10H169c41.939,0,63.771-17.739,84.884-34.896c20.239-16.444,39.355-31.977,77.95-31.977H471
			c0.189,0,0.374-0.018,0.561-0.028C484.688,189.323,492,221.822,492,255.998c0,25.21-3.989,49.502-11.342,72.298
			C478.936,325.525,476.877,322.762,474.405,320.097z"/>
	</g>
</g>
<g>
	<g>
		<path fill="#607D8B" d="M314,75.48c-30.583,0-42.367,13.083-52.764,24.626c-10.098,11.211-18.819,20.894-48.043,20.894H101.698
			c-5.523,0-10,4.478-10,10s4.477,10,10,10h111.496c38.126,0,51.864-15.253,62.903-27.509c9.418-10.456,16.223-18.011,37.903-18.011
			c5.523,0,10-4.478,10-10S319.523,75.48,314,75.48z"/>
	</g>
</g>
<g>
	<g>
		<path fill="#607D8B" d="M363.289,78.41c-1.86-1.86-4.44-2.931-7.07-2.931c-2.64,0-5.21,1.07-7.07,2.931c-1.86,1.859-2.93,4.439-2.93,7.069
			c0,2.63,1.07,5.21,2.93,7.07c1.86,1.86,4.43,2.93,7.07,2.93c2.63,0,5.21-1.069,7.07-2.93c1.86-1.86,2.93-4.44,2.93-7.07
			C366.219,82.849,365.149,80.269,363.289,78.41z"/>
	</g>
</g>
<g>
	<g>
		<path fill="#607D8B" d="M215,294.998c-18.748,0-34,15.252-34,34c0,18.748,15.253,34,34,34c18.748,0,34-15.252,34-34
			C249,310.25,233.748,294.998,215,294.998z M215,342.998c-7.72,0-14-6.28-14-14c0-7.72,6.281-14,14-14c7.72,0,14,6.28,14,14
			C229,336.718,222.72,342.998,215,342.998z"/>
	</g>
</g>
<g>
	<g>
		<path fill="#607D8B" d="M211,40c-16.542,0-30,13.458-30,30c0,16.542,13.458,30,30,30c16.542,0,30-13.458,30-30C241,53.458,227.542,40,211,40z
			 M211,80c-5.514,0-10-4.486-10-10s4.486-10,10-10s10,4.486,10,10S216.514,80,211,80z"/>
	</g>
</g>
<g>
	<g>
		<path fill="#607D8B" d="M66.071,209.799c-1.86-1.86-4.44-2.93-7.07-2.93c-2.63,0-5.21,1.069-7.07,2.93c-1.86,1.86-2.93,4.44-2.93,7.07
			c0,2.64,1.07,5.21,2.93,7.069c1.861,1.871,4.44,2.931,7.07,2.931c2.63,0,5.21-1.061,7.07-2.931c1.86-1.859,2.93-4.43,2.93-7.069
			C69.001,214.239,67.931,211.659,66.071,209.799z"/>
	</g>
</g>
<g>
</g>
<g>
</g>
<g>
</g>
<g>
</g>
<g>
</g>
<g>
</g>
<g>
</g>
<g>
</g>
<g>
</g>
<g>
</g>
<g>
</g>
<g>
</g>
<g>
</g>
<g>
</g>
<g>
</g>
</svg>
