<?xml version="1.0" encoding="iso-8859-1"?>
<!-- Generator: Adobe Illustrator 18.0.0, SVG Export Plug-In . SVG Version: 6.00 Build 0)  -->
<!DOCTYPE svg PUBLIC "-//W3C//DTD SVG 1.1//EN" "http://www.w3.org/Graphics/SVG/1.1/DTD/svg11.dtd">
<svg version="1.1" id="Capa_1" xmlns="http://www.w3.org/2000/svg" xmlns:xlink="http://www.w3.org/1999/xlink" x="0px" y="0px"
	 viewBox="0 0 435.319 435.319" style="enable-background:new 0 0 435.319 435.319;" xml:space="preserve">
<g>
	<path fill="#EBAC00" d="M227.111,325.441c5.21,0,9.448-4.238,9.448-9.448v-2.388l32.856-21.483c1.13-0.738,1.811-1.998,1.811-3.348v-42.212
		c0-3.954,1.539-7.672,4.335-10.467l16.442-16.442c5.264-5.264,5.264-13.828,0-19.092c-5.947-5.948-5.947-15.626,0-21.575
		c2.373-2.373,3.652-5.528,3.602-8.884c-0.051-3.356-1.425-6.472-3.869-8.772l-11.865-11.167
		c-16.904-15.909-38.998-24.67-62.211-24.67s-45.307,8.761-62.211,24.67l-11.865,11.167c-2.444,2.301-3.818,5.415-3.87,8.771
		c-0.051,3.355,1.228,6.512,3.602,8.886c2.881,2.882,4.468,6.713,4.468,10.787s-1.587,7.905-4.469,10.787
		c-5.264,5.264-5.264,13.828,0,19.092l16.442,16.443c2.796,2.795,4.335,6.512,4.335,10.466v42.212c0,1.35,0.681,2.609,1.811,3.348
		l32.855,21.483v2.388c0,5.21,4.238,9.448,9.448,9.448H227.111z M147.362,210.107c0-1.47,0.572-2.851,1.61-3.89
		c4.393-4.392,6.812-10.231,6.812-16.443s-2.419-12.052-6.812-16.444c-0.83-0.83-1.277-1.934-1.26-3.106
		c0.018-1.174,0.499-2.264,1.353-3.067l11.865-11.167c15.415-14.507,35.561-22.496,56.729-22.496s41.314,7.989,56.729,22.496
		l11.865,11.167c0.854,0.804,1.335,1.894,1.353,3.067s-0.43,2.277-1.259,3.107c-4.393,4.392-6.812,10.231-6.812,16.443
		s2.419,12.052,6.812,16.443c2.145,2.145,2.145,5.635,0,7.779l-35.868,32.11h-32.82h-32.819l-35.868-32.11
		C147.933,212.958,147.362,211.577,147.362,210.107z M251.153,279.989c0.013,1.156-0.593,2.245-1.582,2.842l-14.256,8.613h-0.655
		v-10.003c0-2.209-1.791-4-4-4s-4,1.791-4,4v10.003h-5.001v-10.003c0-2.209-1.79-4-4-4c-2.209,0-4,1.791-4,4v10.003h-5v-10.003
		c0-2.209-1.791-4-4-4s-4,1.791-4,4v10.003h-0.655l-14.257-8.613c-0.988-0.597-1.594-1.686-1.581-2.841l0.292-25.883h3.635v10.67
		c0,2.209,1.791,4,4,4s4-1.791,4-4v-10.67h4.833v10.67c0,2.209,1.791,4,4,4s4-1.791,4-4v-10.67h4.833v10.67c0,2.209,1.791,4,4,4
		s4-1.791,4-4v-10.67h4.833v10.67c0,2.209,1.791,4,4,4s4-1.791,4-4v-10.67h4.834v10.67c0,2.209,1.791,4,4,4s4-1.791,4-4v-10.67
		h3.434L251.153,279.989z M206.76,315.993v-4.552c0-1.35-0.681-2.609-1.811-3.348l-32.855-21.483v-40.048
		c0-0.165-0.02-0.325-0.024-0.489l4.439,3.587l-0.341,30.24c-0.045,3.977,2.041,7.724,5.444,9.779l15.21,9.189
		c0.624,0.377,1.339,0.576,2.068,0.576h37.54c0.729,0,1.444-0.199,2.068-0.576l15.209-9.189c3.403-2.055,5.489-5.801,5.446-9.778
		l-0.341-30.241l4.438-3.587c-0.003,0.164-0.024,0.325-0.024,0.49v40.048l-32.856,21.483c-1.13,0.738-1.811,1.998-1.811,3.348v4.552
		c0,0.799-0.649,1.448-1.448,1.448h-18.903C207.409,317.441,206.76,316.792,206.76,315.993z"/>
	<path fill="#EBAC00" d="M170.795,220.98l0.295,0.122c2.867,1.187,5.891,1.787,8.988,1.787c0,0,0,0,0,0c4.335,0,8.569-1.199,12.244-3.469
		c10.39-6.417,16.073-14.188,16.433-22.473c0.334-7.677-2.989-15.589-9.609-22.88c-4.649-5.119-11.496-7.917-18.563-7.5
		l-2.065,0.118c-9.606,0.549-18.039,7.073-20.983,16.233c-1.437,4.469-1.956,9.105-1.543,13.78l0.413,4.677
		C157.176,210.115,162.69,217.626,170.795,220.98z M165.152,185.367c1.939-6.034,7.495-10.332,13.824-10.694
		c0,0,2.665-0.144,2.964-0.144c4.333,0,8.447,1.792,11.285,4.918c3.607,3.972,7.843,10.172,7.54,17.153
		c-0.303,6.968-7.043,12.555-12.645,16.014c-4.137,2.557-9.437,2.973-13.969,1.096l-0.295-0.122
		c-5.34-2.209-8.972-7.158-9.48-12.914l-0.413-4.677C163.643,192.391,164.044,188.814,165.152,185.367z"/>
	<path fill="#EBAC00" d="M226.68,196.948c0.36,8.284,6.043,16.056,16.434,22.473c3.675,2.27,7.908,3.469,12.243,3.469
		c3.098,0,6.121-0.601,8.984-1.786l0.3-0.123c8.105-3.354,13.619-10.866,14.39-19.604l0.413-4.677
		c0.412-4.675-0.106-9.311-1.543-13.781c-2.944-9.16-11.378-15.684-20.983-16.232l-2.064-0.118
		c-7.062-0.407-13.913,2.381-18.563,7.5C229.67,181.359,226.346,189.271,226.68,196.948z M242.213,179.447
		c2.838-3.126,6.951-4.918,11.284-4.918c0.3,0,2.964,0.144,2.964,0.144c6.329,0.362,11.885,4.66,13.824,10.694
		c1.108,3.447,1.508,7.024,1.19,10.63l-0.413,4.677c-0.508,5.756-4.14,10.705-9.476,12.913l-0.3,0.123
		c-4.532,1.877-9.83,1.461-13.97-1.096c-5.601-3.459-12.341-9.046-12.645-16.014C234.37,189.62,238.606,183.419,242.213,179.447z"/>
	<path fill="#EBAC00" d="M205.889,171.266c2.457,4.255,6.856,6.796,11.77,6.796c0,0,0,0,0,0c4.914,0,9.314-2.541,11.771-6.796l6.947-12.033
		c1.104-1.913,0.449-4.359-1.464-5.464c-1.914-1.106-4.36-0.449-5.464,1.464l-6.947,12.033c-1.011,1.751-2.821,2.796-4.843,2.796
		c-2.021,0-3.832-1.045-4.842-2.796l-6.948-12.033c-1.104-1.912-3.549-2.57-5.464-1.464c-1.913,1.104-2.569,3.551-1.464,5.464
		L205.889,171.266z"/>
	<path fill="#EBAC00" d="M227.483,205.963c-1.956-3.388-5.465-5.698-9.375-5.847c-4.213-0.161-8.021,1.948-10.111,5.571l-11.543,19.993
		c-2.018,3.495-2.024,7.656-0.018,11.133c2,3.465,5.686,5.618,9.617,5.618c0.992,0,1.993-0.135,2.975-0.4l6.107-1.651
		c1.653-0.447,3.396-0.447,5.049,0l6.108,1.651c0.981,0.266,1.982,0.4,2.974,0.4h0.001c3.931-0.001,7.616-2.154,9.616-5.619
		c2.007-3.477,2-7.638-0.018-11.132L227.483,205.963z M231.955,232.812c-0.452,0.782-1.396,1.618-2.689,1.619
		c-0.287,0-0.586-0.042-0.887-0.123l-8.194-2.215c-1.654-0.447-3.396-0.447-5.05,0l-8.193,2.215
		c-0.302,0.081-0.601,0.123-0.888,0.123c-1.293,0-2.237-0.836-2.688-1.618c-0.334-0.58-0.777-1.757,0.018-3.133l11.543-19.993
		c0.823-1.426,2.187-1.579,2.734-1.579c0.548,0,1.913,0.153,2.736,1.579l11.542,19.993
		C232.731,231.056,232.289,232.232,231.955,232.812z"/>
	<path fill="#EBAC00" d="M432.922,213.989l-10.08-4.407c-1.889-48.905-21.126-95.338-54.394-131.297l4.012-10.251
		c0.579-1.48,0.228-3.163-0.896-4.286c-1.124-1.124-2.808-1.475-4.286-0.896l-10.25,4.014
		c-35.97-33.26-82.403-52.491-131.298-54.383l-4.411-10.085C220.682,0.94,219.244,0,217.655,0c-1.59,0-3.028,0.941-3.665,2.397
		l-4.409,10.085c-48.904,1.889-95.336,21.123-131.295,54.389l-10.252-4.013c-1.48-0.58-3.163-0.228-4.287,0.896
		c-1.124,1.124-1.476,2.807-0.896,4.286l4.014,10.25c-33.264,35.948-52.498,82.381-54.387,131.3L2.397,214
		C0.941,214.637,0,216.076,0,217.665c0,1.59,0.941,3.028,2.397,3.665l10.08,4.407c1.89,48.901,21.125,95.335,54.391,131.303
		l-4.01,10.245c-0.58,1.48-0.228,3.163,0.896,4.286c0.764,0.765,1.787,1.172,2.829,1.172c0.49,0,0.984-0.09,1.458-0.275
		l10.244-4.011c35.969,33.267,82.406,52.502,131.308,54.39L214,432.922c0.637,1.457,2.076,2.397,3.666,2.397
		c1.589,0,3.028-0.941,3.665-2.397l4.405-10.075c48.896-1.89,95.333-21.125,131.313-54.393l10.237,4.007
		c0.474,0.186,0.968,0.275,1.457,0.275c1.042,0,2.065-0.407,2.829-1.172c1.124-1.124,1.476-2.807,0.896-4.286l-4.008-10.236
		c33.261-35.972,52.493-82.411,54.382-131.314l10.08-4.409c1.457-0.637,2.397-2.076,2.397-3.665
		C435.319,216.064,434.378,214.626,432.922,213.989z M343.758,293.957c7.648-12.594,13.455-26.421,17.065-41.103l39.092-17.098
		c-3.529,36.21-17.458,69.836-40.583,97.974L343.758,293.957z M75.992,333.733c-23.126-28.14-37.057-61.765-40.586-97.971
		l39.092,17.092c3.61,14.682,9.416,28.509,17.064,41.103L75.992,333.733z M17.944,219.396c-0.02-0.009-0.039-0.018-0.059-0.026
		l-3.901-1.706l3.897-1.705c0.023-0.01,0.046-0.02,0.069-0.03l54.517-23.843c-1.459,8.308-2.226,16.853-2.226,25.573
		c0,8.721,0.766,17.266,2.226,25.575L17.944,219.396z M91.562,141.363c-7.648,12.594-13.454,26.421-17.064,41.103l-39.093,17.098
		c3.529-36.208,17.459-69.832,40.586-97.967L91.562,141.363z M359.325,101.592c23.133,28.139,37.06,61.762,40.581,97.962
		l-39.083-17.088c-3.61-14.682-9.416-28.51-17.065-41.104L359.325,101.592z M347.797,267.669l-31.446-13.135
		c4.333-11.615,6.639-24.071,6.639-36.87c0-12.752-2.279-24.981-6.448-36.303l31.54-12.962c5.807,15.324,8.997,31.926,8.997,49.26
		C357.079,235.277,353.786,252.137,347.797,267.669z M345.035,161.001l-31.545,12.964c-10.452-22.833-28.829-41.306-51.591-51.885
		l13.146-31.475C306.108,104.691,331.122,129.845,345.035,161.001z M252.853,74.498l-17.1-39.098
		c36.185,3.523,69.81,17.455,97.969,40.592l-39.765,15.571C281.363,83.914,267.535,78.108,252.853,74.498z M267.663,87.521
		l-13.143,31.466c-11.479-4.302-23.898-6.662-36.861-6.662c-12.753,0-24.984,2.28-36.307,6.451L168.393,87.24
		c15.326-5.809,31.929-8.999,49.266-8.999C235.274,78.241,252.133,81.533,267.663,87.521z M141.363,91.562l-39.77-15.568
		c28.139-23.133,61.764-37.067,97.968-40.595l-17.095,39.099C167.784,78.108,153.956,83.914,141.363,91.562z M160.996,90.287
		l12.962,31.541c-22.826,10.453-41.294,28.828-51.871,51.588l-31.479-13.148C104.693,129.21,129.844,104.2,160.996,90.287z
		 M78.241,217.659c0-17.617,3.293-34.478,9.282-50.009l31.471,13.144c-4.303,11.481-6.664,23.904-6.664,36.87
		c0,12.591,2.236,24.847,6.433,36.301l-31.526,12.955C81.43,251.595,78.241,234.994,78.241,217.659z M90.285,274.317l31.514-12.95
		c7.679,16.852,19.78,31.599,35.415,42.558l-11.044,33.384C121.663,322.611,102.022,300.602,90.285,274.317z M146.013,346.456
		c0.286,0.216,0.602,0.396,0.95,0.532c11.054,6.067,22.966,10.752,35.503,13.834l17.1,39.097
		c-36.206-3.529-69.833-17.46-97.975-40.588l39.772-15.574C142.893,344.687,144.447,345.581,146.013,346.456z M153.278,341.293
		l12.479-37.723c0.568-1.717-0.086-3.602-1.597-4.596c-27.445-18.081-43.831-48.478-43.831-81.311
		c0-53.674,43.662-97.34,97.33-97.34c53.668,0,97.331,43.666,97.331,97.34c0,32.832-16.385,63.229-43.83,81.311
		c-1.511,0.994-2.165,2.879-1.598,4.596l12.479,37.723c-19.271,10.076-41.171,15.785-64.382,15.785
		C194.448,357.078,172.549,351.369,153.278,341.293z M288.359,346.986c0.346-0.135,0.661-0.315,0.946-0.529
		c1.567-0.875,3.121-1.77,4.652-2.699l39.776,15.57c-28.142,23.13-61.768,37.061-97.973,40.591l17.094-39.097
		C265.391,357.739,277.304,353.053,288.359,346.986z M289.15,337.309l-11.043-33.384c15.464-10.84,27.469-25.386,35.159-42.008
		l31.446,13.135C332.938,301.013,313.429,322.747,289.15,337.309z M362.853,243.233c1.459-8.309,2.226-16.853,2.226-25.574
		s-0.766-17.265-2.226-25.574l54.529,23.841c0.016,0.007,0.031,0.014,0.047,0.021l3.907,1.708L362.853,243.233z M414.66,206.005
		l-6.415-2.805c-3.046-40.953-18.771-78.915-45.602-110.087l2.549-6.512C394.693,119.77,412.078,161.732,414.66,206.005z
		 M338.381,133.151c-9.877-14.067-22.146-26.336-36.214-36.213l59.51-23.302L338.381,133.151z M348.711,70.122l-6.51,2.549
		c-31.196-26.835-69.16-42.564-110.095-45.612l-2.797-6.394C273.571,23.249,315.533,40.63,348.711,70.122z M217.655,13.983
		l1.661,3.797c0.026,0.069,0.059,0.134,0.088,0.202l23.829,54.484c-8.309-1.459-16.853-2.226-25.574-2.226
		c-8.721,0-17.266,0.766-25.575,2.226L217.655,13.983z M206.003,20.664l-2.796,6.394c-40.956,3.056-78.92,18.786-110.093,45.617
		l-6.512-2.549C119.77,40.629,161.731,23.246,206.003,20.664z M77.567,75.181c0.037,0.016,0.074,0.029,0.111,0.043l55.473,21.714
		c-14.068,9.877-26.336,22.146-36.214,36.214L75.201,77.64c-0.015-0.036-0.027-0.073-0.043-0.11l-1.523-3.889L77.567,75.181z
		 M70.121,86.606l2.55,6.513C45.847,124.286,30.12,162.25,27.064,203.211l-6.405,2.802C23.242,161.729,40.624,119.766,70.121,86.606
		z M20.659,229.314l6.406,2.801c3.057,40.959,18.784,78.923,45.608,110.097l-2.549,6.511
		C40.626,315.547,23.242,273.583,20.659,229.314z M96.938,302.167c9.877,14.068,22.146,26.337,36.214,36.214L77.611,360.13
		c-0.025,0.011-0.051,0.019-0.076,0.03l-3.892,1.524L96.938,302.167z M86.601,365.201l6.512-2.55
		c31.176,26.826,69.143,42.553,110.1,45.609l2.802,6.406C161.745,412.083,119.779,394.7,86.601,365.201z M217.664,421.336
		l-25.578-58.483c8.309,1.459,16.853,2.226,25.574,2.226c8.721,0,17.266-0.766,25.575-2.226l-23.864,54.582
		c-0.01,0.025-0.023,0.049-0.032,0.074L217.664,421.336z M229.312,414.665l2.801-6.406c40.957-3.057,78.923-18.786,110.099-45.613
		l6.518,2.551C315.543,394.698,273.576,412.082,229.312,414.665z M302.168,338.381c14.068-9.877,26.336-22.146,36.214-36.213
		l23.302,59.51L302.168,338.381z M365.203,348.725l-2.552-6.517c26.822-31.17,42.548-69.137,45.604-110.099l6.405-2.801
		C412.077,273.577,394.696,315.545,365.203,348.725z"/>
	<path fill="#EBAC00" d="M147.159,235.774c-8.822,0-16,7.178-16,16s7.178,16,16,16s16-7.178,16-16S155.982,235.774,147.159,235.774z
		 M147.159,259.774c-4.411,0-8-3.589-8-8s3.589-8,8-8s8,3.589,8,8S151.571,259.774,147.159,259.774z"/>
	<path fill="#EBAC00" d="M272.16,251.774c0,8.822,7.178,16,16,16s16-7.178,16-16s-7.178-16-16-16S272.16,242.952,272.16,251.774z M296.16,251.774
		c0,4.411-3.589,8-8,8s-8-3.589-8-8s3.589-8,8-8S296.16,247.363,296.16,251.774z"/>
	<path fill="#EBAC00" d="M291.844,62.819c-1.213-2.968-3.508-5.285-6.464-6.525c-1.481-0.622-3.043-0.937-4.641-0.937
		c-4.848,0-9.191,2.888-11.068,7.357c-1.24,2.956-1.256,6.218-0.043,9.185c1.214,2.968,3.51,5.284,6.465,6.524
		c1.48,0.622,3.042,0.937,4.641,0.938c4.849,0,9.192-2.889,11.067-7.358C293.042,69.048,293.057,65.786,291.844,62.819z
		 M284.425,68.908c-0.625,1.49-2.074,2.453-3.69,2.453c-0.529,0-1.049-0.106-1.546-0.314c-0.984-0.413-1.75-1.186-2.154-2.175
		s-0.399-2.076,0.015-3.062c0.626-1.49,2.075-2.453,3.691-2.453c0.529,0,1.049,0.105,1.545,0.313
		c0.985,0.413,1.75,1.186,2.154,2.175C284.844,66.834,284.839,67.922,284.425,68.908z"/>
	<path fill="#EBAC00" d="M149.939,379.025c1.481,0.621,3.042,0.937,4.64,0.937h0c4.848,0,9.192-2.888,11.068-7.358
		c1.241-2.955,1.256-6.217,0.043-9.184c-1.213-2.968-3.508-5.284-6.464-6.525c-1.481-0.621-3.042-0.937-4.64-0.937
		c-4.848,0-9.193,2.889-11.069,7.358C140.957,369.417,143.837,376.464,149.939,379.025z M150.894,366.412
		c0.625-1.491,2.075-2.454,3.692-2.454c0.529,0,1.049,0.105,1.544,0.313c0.985,0.413,1.75,1.186,2.155,2.175
		s0.399,2.076-0.014,3.062c-0.625,1.491-2.075,2.455-3.691,2.454c-0.529,0-1.049-0.105-1.544-0.313
		C151.001,370.795,150.041,368.446,150.894,366.412z"/>
	<path fill="#EBAC00" d="M357.433,160.524c1.853,4.532,6.213,7.461,11.109,7.461c0,0,0,0,0.001,0c1.559,0,3.085-0.301,4.537-0.895
		c2.967-1.213,5.284-3.508,6.524-6.464c1.241-2.955,1.256-6.218,0.043-9.185c-1.853-4.532-6.214-7.461-11.11-7.461
		c-1.56,0-3.086,0.301-4.538,0.895C357.875,147.379,354.929,154.399,357.433,160.524z M367.027,152.28
		c0.486-0.198,0.994-0.299,1.511-0.299c1.633,0,3.088,0.977,3.706,2.488c0.403,0.988,0.398,2.076-0.015,3.062
		c-0.414,0.985-1.187,1.75-2.176,2.155c-0.486,0.198-0.994,0.299-1.51,0.299c-1.634,0-3.088-0.977-3.706-2.488
		C364.004,155.455,364.985,153.115,367.027,152.28z"/>
	<path fill="#EBAC00" d="M77.886,274.795c-1.853-4.532-6.214-7.461-11.11-7.461c-1.56,0-3.086,0.301-4.538,0.895
		c-6.125,2.503-9.071,9.523-6.567,15.648c1.852,4.532,6.213,7.461,11.11,7.461c0,0,0.001,0,0.001,0c1.559,0,3.085-0.301,4.537-0.895
		c2.967-1.213,5.284-3.508,6.524-6.464S79.099,277.762,77.886,274.795z M70.467,280.884c-0.414,0.985-1.186,1.751-2.175,2.155
		c-0.486,0.198-0.994,0.299-1.51,0.299c0,0,0,0,0,0c-1.633,0-3.088-0.977-3.706-2.488c-0.834-2.042,0.147-4.382,2.189-5.217
		c0.486-0.198,0.995-0.299,1.511-0.299c1.633,0,3.087,0.977,3.705,2.488C70.885,278.812,70.881,279.898,70.467,280.884z"/>
	<path fill="#EBAC00" d="M379.068,276.196c-1.213-2.968-3.509-5.284-6.464-6.524c-1.481-0.622-3.043-0.938-4.641-0.938
		c-4.848,0-9.192,2.889-11.068,7.358c-2.561,6.101,0.319,13.147,6.421,15.709c1.481,0.621,3.042,0.937,4.64,0.937
		c0.001,0,0.001,0,0.001,0c4.848,0,9.191-2.888,11.068-7.357C380.265,282.426,380.281,279.163,379.068,276.196z M371.648,282.285
		c-0.626,1.49-2.074,2.453-3.691,2.453c-0.529,0-1.049-0.105-1.545-0.313c-2.033-0.854-2.993-3.202-2.14-5.236
		c0.625-1.49,2.074-2.454,3.691-2.454c0.528,0,1.049,0.106,1.545,0.314c0.985,0.413,1.75,1.186,2.154,2.174
		C372.067,280.212,372.062,281.3,371.648,282.285z"/>
	<path fill="#EBAC00" d="M62.715,165.647c1.481,0.621,3.042,0.937,4.64,0.937c0.001,0,0,0,0,0c4.848,0,9.192-2.888,11.068-7.357
		c1.24-2.955,1.256-6.218,0.043-9.185c-1.213-2.968-3.509-5.284-6.464-6.524c-1.481-0.622-3.043-0.938-4.641-0.938
		c-4.847,0-9.192,2.889-11.068,7.358C53.734,156.04,56.615,163.087,62.715,165.647z M63.671,153.034
		c0.625-1.49,2.074-2.454,3.691-2.454c0.529,0,1.049,0.106,1.546,0.314c0.985,0.413,1.75,1.186,2.154,2.174
		c0.404,0.989,0.399,2.077-0.015,3.063c-0.625,1.49-2.074,2.453-3.691,2.453c-0.529,0-1.049-0.105-1.545-0.313
		C63.778,157.417,62.817,155.068,63.671,153.034z"/>
	<path fill="#EBAC00" d="M268.228,373.081c1.853,4.532,6.213,7.461,11.11,7.461c0,0,0,0,0.001,0c1.559,0,3.085-0.301,4.537-0.895
		c2.967-1.213,5.284-3.508,6.524-6.463c1.24-2.956,1.255-6.218,0.042-9.185c-1.853-4.533-6.214-7.462-11.111-7.462
		c-1.559,0-3.084,0.301-4.536,0.895C268.671,359.937,265.724,366.956,268.228,373.081z M275.647,366.992
		c0.414-0.985,1.187-1.75,2.175-2.154c0.486-0.199,0.994-0.3,1.51-0.3c1.634,0,3.089,0.978,3.707,2.489
		c0.404,0.989,0.398,2.076-0.015,3.061c-0.413,0.985-1.186,1.751-2.175,2.155c-0.486,0.198-0.994,0.299-1.51,0.299h-0.001
		c-1.633,0-3.088-0.977-3.706-2.488C275.229,369.065,275.234,367.978,275.647,366.992z"/>
	<path fill="#EBAC00" d="M167.091,62.238c-1.853-4.533-6.214-7.462-11.111-7.462c-1.559,0-3.085,0.301-4.537,0.895
		c-6.125,2.503-9.071,9.523-6.567,15.648c1.852,4.532,6.213,7.461,11.11,7.461h0.001c1.559,0,3.085-0.301,4.537-0.895
		c2.967-1.213,5.284-3.508,6.524-6.463C168.289,68.467,168.304,65.205,167.091,62.238z M159.672,68.326
		c-0.413,0.985-1.186,1.751-2.175,2.155c-0.486,0.198-0.994,0.299-1.51,0.299h0c-1.633,0-3.088-0.977-3.706-2.488
		c-0.404-0.989-0.399-2.076,0.014-3.062s1.186-1.751,2.174-2.154c0.486-0.199,0.995-0.3,1.511-0.3c1.633,0,3.088,0.978,3.706,2.489
		C160.09,66.255,160.085,67.342,159.672,68.326z"/>
	<path fill="#EBAC00" d="M105.598,208.581c-1.563-1.563-4.095-1.563-5.657,0l-3.421,3.421l-3.421-3.421c-1.563-1.563-4.095-1.563-5.657,0
		c-1.562,1.562-1.562,4.095,0,5.656l3.422,3.422l-3.422,3.422c-1.562,1.562-1.562,4.095,0,5.656
		c0.781,0.781,1.805,1.172,2.829,1.172s2.047-0.391,2.829-1.172l3.421-3.421l3.421,3.421c0.781,0.781,1.805,1.172,2.829,1.172
		s2.047-0.391,2.829-1.172c1.562-1.562,1.562-4.095,0-5.656l-3.422-3.422l3.422-3.422
		C107.16,212.676,107.16,210.143,105.598,208.581z"/>
	<path fill="#EBAC00" d="M347.878,208.581c-1.561-1.563-4.096-1.563-5.656,0l-3.422,3.422l-3.422-3.422c-1.561-1.563-4.096-1.563-5.656,0
		c-1.563,1.562-1.563,4.095,0,5.656l3.422,3.422l-3.422,3.422c-1.563,1.562-1.563,4.095,0,5.656c0.78,0.781,1.805,1.172,2.828,1.172
		s2.048-0.391,2.828-1.172l3.422-3.422l3.422,3.422c0.78,0.781,1.805,1.172,2.828,1.172s2.048-0.391,2.828-1.172
		c1.563-1.562,1.563-4.095,0-5.656l-3.422-3.422l3.422-3.422C349.44,212.676,349.44,210.143,347.878,208.581z"/>
	<path fill="#EBAC00" d="M123.162,136.001h4.839v4.839c0,2.209,1.791,4,4,4s4-1.791,4-4v-4.839h4.839c2.209,0,4-1.791,4-4s-1.791-4-4-4h-4.839
		v-4.839c0-2.209-1.791-4-4-4s-4,1.791-4,4v4.839h-4.839c-2.209,0-4,1.791-4,4S120.953,136.001,123.162,136.001z"/>
	<path fill="#EBAC00" d="M312.157,299.318h-4.839v-4.839c0-2.209-1.791-4-4-4s-4,1.791-4,4v4.839h-4.838c-2.209,0-4,1.791-4,4s1.791,4,4,4h4.838
		v4.839c0,2.209,1.791,4,4,4s4-1.791,4-4v-4.839h4.839c2.209,0,4-1.791,4-4S314.366,299.318,312.157,299.318z"/>
	<path fill="#EBAC00" d="M214.238,87.441c-1.563-1.563-4.095-1.563-5.657,0c-1.562,1.562-1.562,4.095,0,5.656l3.422,3.422l-3.422,3.422
		c-1.562,1.562-1.562,4.095,0,5.656c0.781,0.781,1.805,1.172,2.829,1.172c1.023,0,2.047-0.391,2.829-1.172l3.422-3.422l3.422,3.422
		c0.781,0.781,1.805,1.172,2.828,1.172s2.048-0.391,2.828-1.172c1.563-1.562,1.563-4.095,0-5.656l-3.422-3.422l3.422-3.422
		c1.563-1.562,1.563-4.095,0-5.656c-1.563-1.563-4.096-1.563-5.656,0l-3.422,3.422L214.238,87.441z"/>
	<path fill="#EBAC00" d="M221.082,347.878c0.781,0.781,1.805,1.172,2.828,1.172s2.048-0.391,2.828-1.172c1.563-1.562,1.563-4.095,0-5.656
		l-3.422-3.422l3.422-3.422c1.563-1.562,1.563-4.095,0-5.656c-1.563-1.563-4.096-1.563-5.656,0l-3.422,3.422l-3.422-3.422
		c-1.563-1.563-4.095-1.563-5.657,0c-1.562,1.562-1.562,4.095,0,5.656l3.422,3.422l-3.422,3.422c-1.562,1.562-1.562,4.095,0,5.656
		c0.781,0.781,1.805,1.172,2.829,1.172c1.023,0,2.047-0.391,2.829-1.172l3.422-3.422L221.082,347.878z"/>
	<path fill="#EBAC00" d="M312.157,128.001h-4.839v-4.839c0-2.209-1.791-4-4-4s-4,1.791-4,4v4.839h-4.838c-2.209,0-4,1.791-4,4s1.791,4,4,4h4.838
		v4.839c0,2.209,1.791,4,4,4s4-1.791,4-4v-4.839h4.839c2.209,0,4-1.791,4-4S314.366,128.001,312.157,128.001z"/>
	<path fill="#EBAC00" d="M123.162,307.318h4.839v4.839c0,2.209,1.791,4,4,4s4-1.791,4-4v-4.839h4.839c2.209,0,4-1.791,4-4s-1.791-4-4-4h-4.839
		v-4.839c0-2.209-1.791-4-4-4s-4,1.791-4,4v4.839h-4.839c-2.209,0-4,1.791-4,4S120.953,307.318,123.162,307.318z"/>
</g>
<g>
</g>
<g>
</g>
<g>
</g>
<g>
</g>
<g>
</g>
<g>
</g>
<g>
</g>
<g>
</g>
<g>
</g>
<g>
</g>
<g>
</g>
<g>
</g>
<g>
</g>
<g>
</g>
<g>
</g>
</svg>
