<?xml version="1.0" encoding="iso-8859-1"?>
<!-- Generator: Adobe Illustrator 19.0.0, SVG Export Plug-In . SVG Version: 6.00 Build 0)  -->
<svg version="1.1" id="Capa_1" xmlns="http://www.w3.org/2000/svg" xmlns:xlink="http://www.w3.org/1999/xlink" x="0px" y="0px"
	 viewBox="0 0 512 512" style="enable-background:new 0 0 512 512;" xml:space="preserve">
<g>
	<g>
		<path fill="#fff" d="M462.112,409.248c-0.247-0.555-24.419-56.952-6.729-188.655c0.914-6.803,1.476-13.716,1.673-20.549
			c0.095-3.331-2.031-6.321-5.209-7.324l-26.124-8.244l24.864-14.719c2.698-1.597,4.109-4.712,3.53-7.794
			c-2.838-15.097-7.771-29.754-14.631-43.703c-0.179-0.513-0.412-1.015-0.712-1.495c-0.03-0.048-0.065-0.09-0.095-0.137
			c-9.262-18.354-21.889-35.452-37.539-50.661c-24.428-23.741-55.341-42.437-89.397-54.066c-2.921-0.997-6.157-0.092-8.135,2.28
			L287.17,33.882l-3.591-24.615c-0.463-3.179-2.913-5.704-6.076-6.265C266.263,1.011,255.338,0,245.034,0
			c-10.211,0-21.015,0.454-32.33,1.35c-0.116,0.007-0.232,0.015-0.347,0.027c-11.896,0.95-24.356,2.388-37.299,4.312
			c-3.029,0.45-5.475,2.708-6.167,5.692l-5.82,25.104l-15.223-21.672c-1.699-2.421-4.671-3.609-7.568-3.025
			c-48.271,9.683-85.57,22.064-85.94,22.187c-2.057,0.687-3.712,2.236-4.536,4.242c-0.823,2.006-0.733,4.271,0.249,6.205
			l47.539,93.697c1.115,2.2,3.257,3.694,5.704,4.01c2.449,0.315,4.901-0.608,6.539-2.454c0.095-0.107,9.819-10.901,30.018-20.721
			c0.641-0.311,1.3-0.624,1.971-0.938l8.033,25.703c0,0,0,0.001,0.001,0.002l6.606,21.141c-2.527,1.257-5.084,2.637-7.652,4.156
			c-0.417,0.247-0.823,0.506-1.236,0.758c-0.286,0.174-0.573,0.349-0.856,0.525c-1.136,0.704-2.26,1.426-3.369,2.165
			c-0.15,0.1-0.305,0.198-0.454,0.299c-1.266,0.854-2.514,1.731-3.743,2.633c-0.142,0.104-0.278,0.211-0.42,0.315
			c-1.053,0.779-2.093,1.577-3.119,2.391c-0.244,0.193-0.485,0.389-0.727,0.584c-1.004,0.809-1.995,1.635-2.973,2.477
			c-0.119,0.103-0.241,0.205-0.36,0.308c-9.565,8.316-17.841,18.22-24.712,29.624c-10.24,16.999-17.327,37.35-21.189,60.668
			c-0.124,0.743-0.248,1.484-0.363,2.22c-0.11,0.711-0.218,1.424-0.322,2.14c-0.195,1.328-0.378,2.645-0.546,3.943
			c-0.531,4.109-0.973,8.297-1.312,12.577c-3.625,45.678-2.337,99.622,0.809,129.3c0.254,2.396,1.65,4.523,3.749,5.707
			c2.099,1.185,4.641,1.281,6.824,0.261l19.373-9.06c2.146-1.004,3.688-2.968,4.153-5.292l0.574-2.89
			c4.442-22.48,16.243-82.198,47.883-88.79c13.08-2.726,25.365,1.137,36.515,11.477c3.779,3.504,6.821,7.218,9.074,10.337
			l-58.543,19.619c-2.318,0.776-4.108,2.641-4.791,4.989l-38.997,134.169c-0.92,3.164,0.355,6.548,3.122,8.336
			c1.236,0.798,2.641,1.19,4.04,1.19c1.737,0,3.467-0.603,4.855-1.787c0.192-0.164,19.722-16.536,61.922-28.248
			c70.831-19.658,149.82-11.294,203.613-0.817c3.058,0.598,6.165-0.773,7.789-3.432c1.625-2.66,1.423-6.049-0.504-8.497
			c-0.422-0.536-34.181-44.427-47.141-129.319l3.016-0.783l10.534-2.736c0.001,0,0.001-0.001,0.002-0.001l14.758-3.833
			c0.727,21.057,5.212,50.807,22.594,72.094c1.029,1.262,2.443,2.149,4.023,2.532l51.197,12.374c0.579,0.14,1.162,0.208,1.741,0.208
			c2.185,0,4.295-0.968,5.733-2.692C462.847,414.879,463.264,411.843,462.112,409.248z M354.911,425.8
			c6.513,16.327,13.017,28.862,18.113,37.601c-91.851-15.461-156.099-6.318-194.546,4.532
			c-21.836,6.162-37.942,13.477-48.828,19.453l32.312-111.171l63.815-21.387c2.048-0.686,3.697-2.226,4.521-4.222
			c0.825-1.995,0.744-4.25-0.223-6.183c-0.234-0.467-5.852-11.573-16.57-21.647c-14.768-13.884-32.082-19.238-50.073-15.493
			c-40.899,8.521-53.78,71.72-59.306,99.663l-6.33,2.961c-2.341-30.122-2.983-76.265,0.178-116.079
			c0.211-2.66,0.47-5.27,0.757-7.851c6.19-3.607,22.141-12.153,45.352-19.255c27.7-8.476,71.733-16.572,124.198-7.002
			c4.049,0.742,7.933-1.945,8.673-5.997c0.739-4.051-1.947-7.934-5.998-8.673c-55.631-10.147-102.331-1.491-131.71,7.558
			c-16.118,4.964-28.886,10.543-37.693,14.928c4.784-24.148,13.375-44.191,25.685-59.993c0.079-0.1,0.155-0.202,0.234-0.302
			c0.533-0.679,1.075-1.346,1.622-2.009c0.192-0.233,0.385-0.465,0.579-0.696c0.495-0.591,0.996-1.176,1.503-1.754
			c0.261-0.298,0.526-0.593,0.79-0.887c0.471-0.525,0.942-1.049,1.423-1.564c0.336-0.36,0.68-0.712,1.021-1.067
			c0.43-0.448,0.857-0.9,1.294-1.339c0.759-0.762,1.528-1.511,2.31-2.248c0.304-0.287,0.617-0.565,0.925-0.848
			c0.542-0.498,1.085-0.996,1.637-1.483c0.336-0.296,0.678-0.586,1.017-0.877c0.539-0.462,1.08-0.921,1.628-1.372
			c0.349-0.287,0.7-0.571,1.053-0.853c0.557-0.446,1.119-0.887,1.686-1.321c0.351-0.269,0.701-0.539,1.056-0.803
			c0.594-0.443,1.196-0.878,1.8-1.31c0.338-0.242,0.674-0.487,1.015-0.725c0.698-0.486,1.407-0.959,2.119-1.43
			c0.467-0.308,0.937-0.613,1.41-0.916c0.699-0.446,1.401-0.889,2.113-1.32c0.865-0.523,1.738-1.036,2.622-1.537
			c1.524-0.863,3.042-1.671,4.55-2.43c0.022-0.011,0.044-0.023,0.066-0.034c0.619-0.31,1.235-0.606,1.85-0.901
			c0.164-0.079,0.328-0.161,0.492-0.238c0.524-0.247,1.044-0.481,1.564-0.716c0.253-0.114,0.507-0.233,0.759-0.344
			c0.46-0.203,0.917-0.396,1.373-0.59c0.306-0.13,0.614-0.264,0.92-0.391c0.415-0.172,0.825-0.334,1.237-0.499
			c0.343-0.137,0.687-0.276,1.028-0.409c0.378-0.146,0.753-0.285,1.127-0.426c0.368-0.138,0.737-0.277,1.102-0.41
			c0.351-0.127,0.697-0.248,1.045-0.37c0.383-0.134,0.766-0.269,1.145-0.398c0.328-0.111,0.653-0.217,0.978-0.324
			c0.391-0.128,0.78-0.256,1.166-0.379c0.311-0.098,0.619-0.192,0.928-0.287c0.392-0.12,0.783-0.24,1.17-0.354
			c0.296-0.087,0.59-0.171,0.882-0.255c0.39-0.111,0.778-0.222,1.162-0.326c0.284-0.078,0.566-0.153,0.847-0.228
			c0.384-0.101,0.766-0.202,1.142-0.297c0.272-0.07,0.542-0.136,0.81-0.202c0.376-0.092,0.75-0.183,1.118-0.269
			c0.262-0.062,0.523-0.121,0.782-0.18c0.364-0.083,0.725-0.163,1.081-0.24c0.253-0.055,0.503-0.108,0.753-0.16
			c0.353-0.074,0.703-0.145,1.049-0.214c0.241-0.048,0.479-0.094,0.716-0.14c0.34-0.066,0.676-0.128,1.007-0.188
			c0.231-0.042,0.461-0.083,0.687-0.123c0.325-0.057,0.645-0.111,0.961-0.164c0.22-0.037,0.439-0.073,0.655-0.107
			c0.307-0.049,0.609-0.095,0.907-0.14c0.213-0.032,0.425-0.064,0.632-0.093c0.288-0.042,0.571-0.081,0.85-0.118
			c0.201-0.027,0.404-0.055,0.599-0.08c0.268-0.035,0.53-0.067,0.789-0.098c0.192-0.023,0.385-0.047,0.571-0.068
			c0.252-0.029,0.495-0.055,0.737-0.081c0.176-0.019,0.355-0.038,0.526-0.056c0.232-0.023,0.453-0.044,0.674-0.065
			c0.167-0.016,0.336-0.032,0.497-0.046c0.207-0.018,0.404-0.034,0.599-0.05c0.155-0.012,0.314-0.026,0.463-0.037
			c0.182-0.014,0.353-0.025,0.524-0.037c0.146-0.01,0.297-0.02,0.435-0.029c0.161-0.01,0.31-0.018,0.461-0.027
			c0.126-0.007,0.256-0.015,0.375-0.021c0.146-0.007,0.278-0.013,0.413-0.019c0.106-0.005,0.219-0.01,0.317-0.014
			c0.123-0.005,0.232-0.008,0.343-0.011c0.075-0.002,0.155-0.005,0.225-0.007c0.061-0.002,0.113-0.003,0.169-0.004
			c0.044-0.001,0.083-0.002,0.124-0.003c0.055-0.001,0.112-0.003,0.162-0.003c0.061-0.001,0.118-0.002,0.172-0.002
			c0.023,0,0.044,0,0.066-0.001c0.036,0,0.074-0.001,0.105-0.001c0.049,0,0.098,0,0.138,0c0.035,0,0.065,0,0.091,0
			c0.033,0,0.069,0,0.091,0.001c0.037,0.001,0.07,0.002,0.075,0.002c0.064,0.001,0.129-0.004,0.193-0.004
			c0.387-0.002,0.777-0.025,1.158-0.084c0.513-0.082,50.131-7.485,84.948,19.167c0.107,0.083,0.214,0.169,0.321,0.252
			c0.446,0.346,0.893,0.693,1.334,1.05c0.228,0.185,0.452,0.377,0.679,0.564c0.321,0.265,0.644,0.529,0.963,0.801
			c0.037,0.032,0.073,0.065,0.108,0.096c1.059,0.908,2.086,1.846,3.091,2.806c0.125,0.12,0.254,0.237,0.379,0.358
			c0.971,0.94,1.915,1.909,2.835,2.898c0.004,0.005,0.009,0.01,0.013,0.014c0.153,0.165,0.307,0.328,0.458,0.494
			c0.898,0.981,1.772,1.986,2.621,3.015c0.096,0.116,0.191,0.235,0.286,0.352c0.052,0.063,0.102,0.126,0.153,0.189
			c0.855,1.055,1.69,2.13,2.494,3.235c0.099,0.136,0.195,0.275,0.293,0.413c0.829,1.151,1.635,2.324,2.41,3.528
			c0.017,0.026,0.034,0.051,0.051,0.076c0.778,1.213,1.522,2.459,2.245,3.724c0.093,0.162,0.188,0.323,0.28,0.486
			c0.684,1.216,1.339,2.459,1.971,3.721c0.021,0.041,0.041,0.082,0.062,0.123c0.088,0.176,0.176,0.351,0.262,0.528
			c0.618,1.259,1.212,2.539,1.781,3.843c0.079,0.179,0.154,0.361,0.232,0.541c0.016,0.038,0.032,0.075,0.048,0.112
			c0.573,1.342,1.124,2.703,1.645,4.094c0.056,0.149,0.108,0.301,0.163,0.451c0.526,1.424,1.027,2.869,1.499,4.343
			c0.021,0.064,0.043,0.126,0.064,0.19c0.472,1.484,0.911,3,1.328,4.536c0.058,0.211,0.117,0.421,0.174,0.632
			c0.394,1.48,0.759,2.987,1.102,4.515c0.024,0.106,0.048,0.214,0.072,0.321c0.036,0.161,0.072,0.321,0.107,0.483
			c0.332,1.526,0.641,3.073,0.923,4.645c0.046,0.254,0.088,0.512,0.133,0.768c0.281,1.623,0.543,3.265,0.771,4.936
			c0.021,0.151,0.038,0.305,0.059,0.457c0.226,1.683,0.426,3.39,0.596,5.123c0.012,0.119,0.026,0.237,0.038,0.357
			c0.169,1.74,0.304,3.509,0.42,5.298c0.004,0.056,0.007,0.112,0.011,0.168c0.007,0.107,0.014,0.214,0.021,0.321
			c-9.465-3.699-19.02-6.925-28.526-9.624c-3.96-1.123-8.085,1.175-9.209,5.137c-1.124,3.961,1.175,8.085,5.137,9.209
			c10.996,3.121,22.066,6.986,32.975,11.507c0.008,0.802,0.015,1.606,0.027,2.404c0.012,0.79,0.032,1.578,0.047,2.367
			c0.033,1.65,0.072,3.293,0.12,4.921c0.029,0.959,0.061,1.918,0.095,2.875c0.052,1.434,0.111,2.856,0.175,4.274
			c0.048,1.064,0.092,2.128,0.147,3.189c0.059,1.124,0.127,2.233,0.193,3.347c0.17,2.902,0.365,5.793,0.587,8.673
			c0.014,0.178,0.026,0.358,0.04,0.535c0.672,8.593,1.564,17.086,2.697,25.428c0.037,0.268,0.088,0.533,0.152,0.793
			C337.167,374.699,346.57,404.868,354.911,425.8z M408.381,393.285c-22.48-29.932-17.441-80.247-17.012-84.125
			c0.008-0.067,0.014-0.124,0.019-0.163c7.401-48.998,3.902-91.267-10.398-125.629c-1.583-3.802-5.949-5.603-9.749-4.018
			c-3.802,1.582-5.601,5.946-4.018,9.749c0,0.001,0,0.001,0.001,0.001c0,0.001,0,0.002,0,0.002
			c13.249,31.838,16.413,71.465,9.403,117.778c-0.01,0.063-0.018,0.125-0.026,0.189c-0.074,0.587-0.515,4.28-0.778,10.049
			l-7.983,2.074c1.356-13.731,2.795-38.613-0.458-66.374c-6.519-55.636-29.075-95.661-65.231-115.748
			c-15.381-8.544-31.757-14.355-48.676-17.273c-4.054-0.696-7.915,2.023-8.615,6.08c-0.7,4.058,2.023,7.915,6.081,8.615
			c15.263,2.632,30.056,7.886,43.967,15.615c32.166,17.87,51.553,52.899,57.622,104.114c3.629,30.619,1.139,58.228-0.146,68.985
			l-6.95,1.805c-0.07-0.597-0.143-1.186-0.211-1.787c-0.012-0.106-0.023-0.213-0.035-0.319c-0.471-4.229-0.882-8.557-1.24-12.964
			c-0.097-1.207-0.196-2.413-0.284-3.624c-0.056-0.768-0.106-1.544-0.159-2.316c-0.089-1.33-0.177-2.66-0.255-3.996
			c-0.043-0.722-0.083-1.447-0.122-2.173c-0.076-1.399-0.145-2.801-0.208-4.204c-0.031-0.692-0.063-1.383-0.09-2.079
			c-0.059-1.454-0.108-2.913-0.154-4.372c-0.021-0.661-0.044-1.317-0.062-1.981c-0.042-1.549-0.072-3.101-0.098-4.655
			c-0.01-0.582-0.025-1.157-0.033-1.742c-0.029-2.13-0.045-4.262-0.045-6.399c0-42.092-12.387-74.003-36.816-94.843
			c-0.6-0.512-1.204-1.014-1.811-1.507c-8.379-6.797-17.449-11.801-26.577-15.465c-0.139-0.056-0.278-0.115-0.417-0.17
			c-0.431-0.171-0.862-0.334-1.293-0.5c-0.231-0.089-0.462-0.181-0.693-0.267c-1.1-0.414-2.199-0.803-3.297-1.179
			c-0.226-0.078-0.451-0.158-0.677-0.234c-1.159-0.39-2.316-0.756-3.472-1.106c-0.162-0.05-0.325-0.101-0.488-0.15
			c-0.254-0.076-0.506-0.146-0.759-0.22c-0.406-0.118-0.811-0.239-1.215-0.352c-0.202-0.057-0.402-0.109-0.604-0.164
			c-0.454-0.125-0.91-0.252-1.363-0.372c-0.095-0.025-0.19-0.048-0.285-0.073c-0.558-0.146-1.115-0.29-1.67-0.427
			c-0.49-0.121-0.977-0.237-1.465-0.352c-0.159-0.038-0.32-0.078-0.479-0.114c-1.286-0.299-2.566-0.576-3.836-0.832
			c-0.007-0.001-0.014-0.003-0.021-0.004c-0.638-0.129-1.275-0.253-1.908-0.372h-0.001c-23.444-4.398-43.272-1.984-47.248-1.418
			c-0.112,0-0.238,0.001-0.374,0.003c-0.112,0.001-0.237,0.003-0.365,0.005c-0.012,0-0.024,0-0.037,0.001
			c-0.881,0.015-2.122,0.056-3.686,0.159c-0.008,0-0.016,0.001-0.024,0.001c-0.336,0.022-0.689,0.048-1.054,0.076
			c-0.019,0.001-0.036,0.003-0.055,0.004c-0.361,0.028-0.738,0.06-1.126,0.094c-0.025,0.002-0.049,0.004-0.074,0.006
			c-0.391,0.035-0.795,0.075-1.212,0.117c-0.025,0.003-0.048,0.005-0.073,0.007c-0.415,0.043-0.842,0.089-1.28,0.14
			c-0.033,0.004-0.065,0.007-0.097,0.011c-0.435,0.051-0.884,0.105-1.342,0.164c-0.04,0.005-0.079,0.01-0.118,0.015
			c-0.457,0.06-0.928,0.123-1.407,0.192c-0.044,0.006-0.087,0.012-0.131,0.019c-0.479,0.069-0.969,0.142-1.468,0.221
			c-0.05,0.008-0.098,0.015-0.148,0.023c-0.502,0.08-1.014,0.164-1.536,0.253c-0.049,0.008-0.097,0.017-0.147,0.025
			c-0.525,0.09-1.06,0.187-1.604,0.288c-0.051,0.009-0.1,0.019-0.151,0.028c-0.547,0.102-1.102,0.211-1.666,0.325
			c-0.051,0.01-0.102,0.021-0.153,0.031c-0.569,0.116-1.145,0.238-1.731,0.366c-0.049,0.011-0.098,0.022-0.147,0.033
			c-0.591,0.13-1.189,0.266-1.795,0.41c-0.048,0.011-0.094,0.023-0.142,0.034c-0.613,0.145-1.234,0.297-1.863,0.456
			c-0.041,0.01-0.081,0.021-0.121,0.031c-0.637,0.162-1.281,0.331-1.935,0.509c-0.035,0.009-0.07,0.019-0.104,0.029
			c-0.661,0.18-1.328,0.368-2.004,0.564c-0.026,0.007-0.051,0.015-0.077,0.023c-0.686,0.2-1.379,0.408-2.08,0.625
			c-0.012,0.004-0.025,0.008-0.037,0.012c-1.443,0.448-2.913,0.934-4.409,1.46l-4.26-13.631
			c9.155-4.073,29.212-11.604,54.457-12.771c4.114-0.19,7.294-3.679,7.104-7.793c-0.191-4.114-3.68-7.296-7.792-7.104
			c-26.385,1.22-47.35,8.613-58.251,13.324l-5.831-18.659c16.431-5.725,38.534-10.358,66.407-9.767
			c0.406,0.009,0.809,0.014,1.215,0.026c0.858,0.023,1.725,0.055,2.594,0.087c0.881,0.034,1.764,0.073,2.649,0.116
			c0.642,0.032,1.284,0.062,1.932,0.099c1.602,0.092,3.208,0.195,4.825,0.32c3.217,0.249,6.394,0.563,9.529,0.94
			c21.951,2.647,41.894,8.458,59.396,17.32c17.482,8.849,32.168,20.607,43.798,35.044c2.684,3.331,5.205,6.806,7.561,10.42
			c2.249,3.452,6.867,4.426,10.318,2.175c3.45-2.249,4.424-6.868,2.175-10.318c-5.255-8.064-11.242-15.498-17.932-22.279
			c-11.151-11.303-24.256-20.79-39.184-28.347c-21.754-11.012-46.823-17.681-74.51-19.823c-2.194-0.17-4.375-0.309-6.545-0.422
			c-0.832-0.044-1.641-0.065-2.466-0.099c-1.312-0.056-2.629-0.117-3.932-0.153c-1.1-0.03-2.172-0.035-3.256-0.05
			c-0.995-0.014-1.996-0.038-2.985-0.039c-1.388-0.002-2.746,0.022-4.107,0.044c-0.66,0.011-1.326,0.01-1.983,0.026
			c-1.914,0.047-3.797,0.119-5.658,0.21c-0.091,0.005-0.186,0.006-0.277,0.011c-53.342,2.678-85.211,23.284-98.849,34.589
			L67.33,45.513c12.775-3.904,39.2-11.516,71.123-18.135l22.01,31.336c1.69,2.408,4.639,3.601,7.526,3.033
			c2.887-0.561,5.175-2.769,5.839-5.634l8.439-36.399c7.308-1.024,14.424-1.867,21.374-2.565l-6.636,29.932
			c-0.891,4.02,1.645,8.002,5.666,8.893c0.544,0.12,1.087,0.179,1.62,0.179c3.42,0,6.502-2.368,7.272-5.845l7.642-34.469
			c8.982-0.605,17.621-0.928,25.829-0.928c7.823,0,16.07,0.642,24.578,1.912l5.213,35.731c0.424,2.911,2.521,5.3,5.352,6.099
			c2.83,0.8,5.868-0.141,7.752-2.399l23.809-28.539c30.074,10.996,57.305,27.853,79.009,48.945
			c13.118,12.749,23.757,26.582,31.911,41.374l-26.443,16.503c-3.494,2.179-4.558,6.779-2.378,10.273
			c1.414,2.266,3.844,3.509,6.333,3.509c1.347,0,2.713-0.366,3.94-1.132l25.178-15.714c3.928,9.066,6.975,18.459,9.13,28.157
			l-34.657,20.515c-2.531,1.498-3.945,4.346-3.61,7.268c0.336,2.922,2.359,5.374,5.164,6.259l36.586,11.545
			c-0.267,4.472-0.702,8.956-1.297,13.39c-3.91,29.111-5.842,54.633-6.455,76.808l-20.045-3.48
			c-4.062-0.705-7.918,2.014-8.621,6.071c-0.705,4.057,2.014,7.917,6.071,8.622l22.373,3.883
			c-0.061,46.153,5.735,75.758,10.048,91.374L408.381,393.285z"/>
	</g>
</g>
<g>
</g>
<g>
</g>
<g>
</g>
<g>
</g>
<g>
</g>
<g>
</g>
<g>
</g>
<g>
</g>
<g>
</g>
<g>
</g>
<g>
</g>
<g>
</g>
<g>
</g>
<g>
</g>
<g>
</g>
</svg>
