<?xml version="1.0" encoding="iso-8859-1"?>
<!-- Generator: Adobe Illustrator 19.0.0, SVG Export Plug-In . SVG Version: 6.00 Build 0)  -->
<svg version="1.1" id="Capa_1" xmlns="http://www.w3.org/2000/svg" xmlns:xlink="http://www.w3.org/1999/xlink" x="0px" y="0px"
	 viewBox="0 0 512 512" style="enable-background:new 0 0 512 512;" xml:space="preserve">
<g>
	<g>
		<path fill="#E6001C" d="M414.5,0h-317C43.738,0,0,43.738,0,97.5v317C0,468.262,43.738,512,97.5,512h317c53.762,0,97.5-43.738,97.5-97.5v-317
			C512,43.738,468.262,0,414.5,0z M497,414.5c0,45.49-37.01,82.5-82.5,82.5h-317C52.009,497,15,459.99,15,414.5v-317
			C15,52.01,52.009,15,97.5,15h317c45.49,0,82.5,37.01,82.5,82.5V414.5z"/>
	</g>
</g>
<g>
	<g>
		<path fill="#E6001C" d="M198.853,239.275c-4.445,0-8.863-0.945-12.94-2.728c26.113-30.386,40.44-68.923,40.44-109.048
			c0-15.163-12.336-27.5-27.5-27.5h-34.75V87.5c0-15.163-12.336-27.5-27.5-27.5s-27.5,12.337-27.5,27.5V100h-34.75
			c-15.164,0-27.5,12.337-27.5,27.5c0,15.163,12.336,27.5,27.5,27.5h93.644c-5.681,22.757-18.409,43.273-36.446,58.511
			c-1.482,0.978-2.856,2.084-4.097,3.298c-16.512,12.669-36.243,20.484-57.094,22.608c-15.085,1.537-26.108,15.061-24.571,30.145
			c1.435,14.09,13.186,24.716,27.334,24.716c0.922,0,1.865-0.048,2.812-0.144c11.259-1.146,22.375-3.442,33.169-6.843V424.5
			c0,15.163,12.336,27.5,27.5,27.5s27.5-12.337,27.5-27.5V287.039c10.948,4.758,22.761,7.236,34.75,7.236
			c15.163,0,27.499-12.337,27.499-27.5C226.353,251.612,214.017,239.275,198.853,239.275z M198.853,279.275
			c-13.503,0-26.742-3.8-38.285-10.991c-2.311-1.439-5.223-1.514-7.606-0.19c-2.382,1.322-3.859,3.832-3.859,6.557V424.5
			c0,6.893-5.607,12.5-12.5,12.5s-12.5-5.607-12.5-12.5V276.713c0-2.475-1.221-4.79-3.263-6.188
			c-1.266-0.866-2.746-1.312-4.238-1.312c-0.915,0-1.835,0.167-2.712,0.508c-12.686,4.921-25.968,8.114-39.468,9.49
			c-0.44,0.044-0.878,0.066-1.3,0.066c-6.423,0-11.759-4.83-12.411-11.236c-0.699-6.855,4.312-13.003,11.168-13.702
			c23.798-2.424,46.316-11.397,65.122-25.95c0.271-0.211,0.529-0.439,0.769-0.686c0.657-0.67,1.416-1.28,2.256-1.812
			c0.282-0.179,0.552-0.375,0.808-0.59c23.253-19.482,38.798-46.676,43.771-76.571c0.362-2.174-0.251-4.397-1.677-6.079
			c-1.425-1.682-3.518-2.651-5.722-2.651H74.353c-6.893,0-12.5-5.607-12.5-12.5s5.607-12.5,12.5-12.5h42.25
			c4.142,0,7.5-3.357,7.5-7.5v-20c0-6.893,5.607-12.5,12.5-12.5s12.5,5.607,12.5,12.5v20c0,4.143,3.358,7.5,7.5,7.5h42.25
			c6.893,0,12.5,5.607,12.5,12.5c0,37.958-14.086,74.357-39.662,102.49c-0.943,1.037-1.903,2.055-2.871,3.063
			c-1.468,1.53-2.22,3.61-2.069,5.726c0.151,2.116,1.19,4.068,2.861,5.375c8.346,6.526,18.73,10.121,29.241,10.121
			c6.893,0,12.5,5.607,12.5,12.5S205.746,279.275,198.853,279.275z"/>
	</g>
</g>
<g>
	<g>
		<path fill="#E6001C" d="M408.854,140h-45c-4.143,0-7.5,3.357-7.5,7.5s3.357,7.5,7.5,7.5h37.5v54.275h-105V155h37.5c4.143,0,7.5-3.357,7.5-7.5
			s-3.357-7.5-7.5-7.5h-45c-4.143,0-7.5,3.357-7.5,7.5v69.275c0,4.143,3.357,7.5,7.5,7.5h120c4.142,0,7.5-3.357,7.5-7.5V147.5
			C416.354,143.357,412.997,140,408.854,140z"/>
	</g>
</g>
<g>
	<g>
		<path fill="#E6001C" d="M438.854,357c-15.163,0-27.5,12.337-27.5,27.5V397h-2.5c-6.893,0-12.5-5.607-12.5-12.5V264.275h32.5
			c15.163,0,27.5-12.337,27.5-27.5V127.5c0-15.163-12.337-27.5-27.5-27.5h-160c-15.164,0-27.5,12.337-27.5,27.5v109.275
			c0,15.163,12.336,27.5,27.5,27.5h2.5V324.5c0,39.977-32.523,72.5-72.5,72.5c-15.164,0-27.5,12.337-27.5,27.5
			c0,15.163,12.336,27.5,27.5,27.5c70.304,0,127.5-57.196,127.5-127.5v-60.225h15V384.5c0,37.22,30.28,67.5,67.5,67.5h30
			c15.163,0,27.5-12.337,27.5-27.5v-40C466.354,369.337,454.017,357,438.854,357z M451.354,424.5c0,6.893-5.607,12.5-12.5,12.5h-30
			c-28.948,0-52.5-23.552-52.5-52.5V256.775c0-4.143-3.357-7.5-7.5-7.5h-30c-4.143,0-7.5,3.357-7.5,7.5V324.5
			c0,62.032-50.468,112.5-112.5,112.5c-6.893,0-12.5-5.607-12.5-12.5s5.607-12.5,12.5-12.5c48.248,0,87.5-39.252,87.5-87.5v-67.725
			c0-4.143-3.357-7.5-7.5-7.5h-10c-6.893,0-12.5-5.607-12.5-12.5V127.5c0-6.893,5.607-12.5,12.5-12.5h160
			c6.893,0,12.5,5.607,12.5,12.5v109.275c0,6.893-5.607,12.5-12.5,12.5h-40c-4.143,0-7.5,3.357-7.5,7.5V384.5
			c0,15.163,12.337,27.5,27.5,27.5h10c4.143,0,7.5-3.357,7.5-7.5v-20c0-6.893,5.607-12.5,12.5-12.5s12.5,5.607,12.5,12.5V424.5z"/>
	</g>
</g>
<g>
</g>
<g>
</g>
<g>
</g>
<g>
</g>
<g>
</g>
<g>
</g>
<g>
</g>
<g>
</g>
<g>
</g>
<g>
</g>
<g>
</g>
<g>
</g>
<g>
</g>
<g>
</g>
<g>
</g>
</svg>
