<svg height="511pt" viewBox="0 0 511.99934 511" width="511pt" xmlns="http://www.w3.org/2000/svg"><path fill="#62C953" d="m8.535156 248.382812c.96875-.023437 1.929688-.207031 2.839844-.546874 2.519531-.691407 22.027344-5.289063 48.546875 16.144531l5.792969 4.71875c19.628906 16.011719 35.296875 28.554687 60.324218 30.097656-7.363281 2.742187-15.007812 4.652344-22.792968 5.691406-11.808594 1.367188-23.261719 4.898438-33.792969 10.410157-18.515625 11.542968-33.617187 27.820312-43.742187 47.148437-1.882813 3.863281-.601563 8.527344 2.996093 10.882813 3.59375 2.355468 8.382813 1.664062 11.171875-1.605469.125-.164063 14.589844-15.941407 50.011719-10.320313l7.417969 1.195313c24.925781 4.089843 44.695312 7.304687 66.917968-3.632813-4.925781 5.863282-10.457031 11.1875-16.503906 15.886719-9.507812 7.097656-17.640625 15.875-23.988281 25.898437-10.3125 19.242188-15.269531 40.902344-14.363281 62.710938.296875 4.242188 3.6875 7.605469 7.929687 7.871094h.597657c4.042968-.03125 7.523437-2.871094 8.363281-6.828125.1875-.851563 4.828125-21.222657 38.21875-34.039063l7.007812-2.671875c23.558594-8.933593 42.246094-16.050781 56.097657-36.691406-1.335938 7.53125-3.464844 14.902344-6.347657 21.988281-4.722656 10.925782-7.402343 22.625-7.902343 34.519532.730468 21.457031 7.082031 42.347656 18.414062 60.585937.117188.222656.296875.398437.433594.613281l.128906.195313c2.054688 3.144531 5.929688 4.5625 9.527344 3.488281 3.59375-1.074219 6.058594-4.382812 6.054687-8.136719-.023437-.972656-.207031-1.929687-.539062-2.84375-.691407-2.40625-5.398438-21.902343 16.136719-48.535156l4.710937-5.796875c15.964844-19.566406 28.621094-35.097656 30.226563-60.003906 2.667968 7.265625 4.535156 14.796875 5.570312 22.46875 1.367188 11.804687 4.898438 23.261718 10.410156 33.789062 11.539063 18.519532 27.8125 33.621094 47.140625 43.742188 1.15625.566406 2.425781.859375 3.710938.855468 3.5625.015626 6.765625-2.183593 8.023437-5.515624 1.261719-3.332032.316406-7.097657-2.367187-9.445313-.648438-.578125-15.964844-14.8125-10.410157-50.082031l1.203126-7.40625c4.089843-24.925782 7.3125-44.699219-3.632813-66.933594 5.863281 4.921875 11.1875 10.453125 15.886719 16.5 7.09375 9.527344 15.871094 17.671875 25.898437 24.03125 17.796875 9.621094 37.730469 14.609375 57.960938 14.507812 2.761719 0 4.460937-.101562 4.75-.121093 4.234375-.320313 7.585937-3.703125 7.871093-7.933594.261719-4.269531-2.644531-8.085937-6.828124-8.960937-.851563-.171876-21.222657-4.832032-34.03125-38.214844l-2.679688-7.003906c-8.941406-23.5625-16.050781-42.25-36.691406-56.089844 7.53125 1.328125 14.898437 3.453125 21.980468 6.339844 10.929688 4.710937 22.632813 7.371093 34.527344 7.851562 21.511719-.738281 42.457032-7.113281 60.730469-18.492188.320313-.207031.628906-.429687.921875-.675781.066406-.050781.152344-.101562.222656-.160156.3125-.203125.613282-.425781.902344-.664063 3.332031-3.332031 3.332031-8.734374 0-12.066406-2.257812-2.230468-5.582031-3.003906-8.59375-2-.058594 0-.117188 0-.175781 0-2.160157.625-21.847657 5.546875-48.640625-16.117187l-5.796875-4.71875c-19.566407-15.964844-35.085938-28.605469-60.011719-30.21875 7.269531-2.664063 14.808594-4.535157 22.484375-5.570313 11.808594-1.367187 23.261719-4.898437 33.792969-10.410156 18.515625-11.542969 33.617187-27.816406 43.738281-47.148438 1.886719-3.863281.605469-8.527343-2.992187-10.882812-3.597657-2.355469-8.382813-1.664062-11.171876 1.609375-.128906.160156-14.609374 15.90625-50.011718 10.316406l-7.417969-1.195312c-24.925781-4.097657-44.695313-7.3125-66.910156 3.625 4.921875-5.863281 10.449219-11.1875 16.496093-15.878907 9.523438-7.09375 17.667969-15.871093 24.03125-25.898437 10.308594-19.242187 15.269532-40.898437 14.359376-62.710937-.292969-4.242188-3.683594-7.605469-7.925782-7.867188-4.253906-.21875-8.042968 2.667969-8.960937 6.824219-.179688.855469-4.828125 21.222656-38.21875 34.039062l-7.007813 2.671875c-23.558594 8.933594-42.25 16.050782-56.097656 36.695313 1.335938-7.535157 3.460938-14.90625 6.347656-21.992188 4.703125-10.925781 7.363282-22.617187 7.851563-34.5-.730469-21.503906-7.101563-42.441406-18.476563-60.707031-.21875-.335938-.457031-.664062-.714844-.972656l-.136718-.1875c-.199219-.316406-.421875-.621094-.664063-.902344-3.332031-3.332031-8.734375-3.332031-12.066406 0-2.230469 2.253906-3.003906 5.574219-2 8.582031v.207031c.632813 2.148438 5.589844 21.765626-16.117187 48.636719l-4.695313 5.769531c-15.964844 19.566407-28.621094 35.097657-30.222656 60.007813-2.667969-7.265625-4.535157-14.800781-5.574219-22.46875-1.367188-11.808594-4.894531-23.261719-10.410156-33.792969-11.535156-18.519531-27.808594-33.621094-47.136719-43.742187-3.820313-1.867188-8.429687-.617188-10.785156 2.917969-2.367188 3.558593-1.765625 8.316406 1.414062 11.171874.648438.578126 15.964844 14.8125 10.410157 50.082032l-1.203126 7.40625c-4.085937 24.925781-7.3125 44.699218 3.636719 66.9375-5.863281-4.925782-11.191406-10.457032-15.890625-16.503906-7.09375-9.511719-15.871094-17.640626-25.898437-23.988282-19.238281-10.316406-40.898438-15.273437-62.710938-14.351562-4.238281.292968-7.605469 3.683594-7.867187 7.925781-.265625 4.265625 2.640625 8.082031 6.828125 8.960937.851562.179688 21.222656 4.828126 34.03125 38.210938l2.675781 7.007812c8.945312 23.558594 16.054688 42.246094 36.695312 56.089844-7.53125-1.328125-14.902343-3.453125-21.980468-6.34375-10.929688-4.722656-22.632813-7.402344-34.527344-7.898437-21.476562.730469-42.386719 7.085937-60.636719 18.429687-3.507812 1.796875-5.332031 5.765625-4.40625 9.597656.925781 3.832032 4.355469 6.53125 8.296875 6.53125zm193.390625-68.488281 4.019531 6.960938c1.511719 2.664062 4.335938 4.3125 7.398438 4.316406 3.0625.007813 5.894531-1.625 7.417969-4.28125 1.527343-2.65625 1.511719-5.925781-.039063-8.566406l-4.015625-6.964844c9.699219-4.515625 20.105469-7.324219 30.761719-8.300781v8.097656c0 4.710938 3.820312 8.53125 8.53125 8.53125 4.714844 0 8.535156-3.820312 8.535156-8.53125v-8.097656c10.640625.980468 21.03125 3.789062 30.71875 8.300781l-4.019531 6.964844c-1.546875 2.640625-1.5625 5.910156-.035156 8.566406 1.523437 2.65625 4.355469 4.289063 7.417969 4.28125 3.0625-.003906 5.882812-1.652344 7.398437-4.316406l4.019531-6.960938c8.722656 6.179688 16.335938 13.796875 22.519532 22.519531l-6.964844 4.019532c-2.660156 1.511718-4.308594 4.335937-4.316406 7.398437-.003907 3.0625 1.628906 5.894531 4.285156 7.417969 2.65625 1.527344 5.921875 1.511719 8.566406-.039062l6.960938-4.019532c4.53125 9.699219 7.355468 20.105469 8.347656 30.765625h-8.097656c-4.714844 0-8.535157 3.820313-8.535157 8.53125 0 4.714844 3.820313 8.535157 8.535157 8.535157h8.097656c-.984375 10.640624-3.792969 21.03125-8.304688 30.71875l-6.960937-4.019532c-4.078125-2.316406-9.265625-.910156-11.609375 3.152344s-.972656 9.257812 3.074218 11.628906l6.964844 4.019532c-6.183594 8.722656-13.796875 16.335937-22.519531 22.519531l-4.019531-6.964844c-1.515625-2.660156-4.339844-4.308594-7.398438-4.316406-3.0625-.003907-5.894531 1.628906-7.421875 4.285156-1.523437 2.65625-1.507812 5.921875.039063 8.566406l4.019531 6.960938c-9.6875 4.511719-20.078125 7.320312-30.71875 8.304687v-8.054687c0-4.714844-3.820313-8.535157-8.535156-8.535157-4.710938 0-8.53125 3.820313-8.53125 8.535157v8.097656c-10.65625-.980469-21.0625-3.789063-30.765625-8.304687l4.019531-6.960938c2.320313-4.078125.914063-9.265625-3.148437-11.609375s-9.257813-.972656-11.628907 3.074219l-4.019531 6.964844c-8.722656-6.183594-16.339844-13.796876-22.519531-22.519532l6.960937-4.019531c2.664063-1.515625 4.3125-4.339844 4.316406-7.402344.007813-3.058593-1.625-5.890625-4.28125-7.417969-2.65625-1.523437-5.925781-1.507812-8.566406.039063l-6.964844 4.019531c-4.511718-9.6875-7.320312-20.078125-8.300781-30.71875h8.054688c4.710937 0 8.53125-3.820312 8.53125-8.535156 0-4.710938-3.820313-8.53125-8.53125-8.53125h-8.097657c.976563-10.65625 3.785157-21.0625 8.300782-30.765625l6.964844 4.019531c2.640624 1.550782 5.910156 1.5625 8.566406.039063 2.65625-1.523438 4.289062-4.355469 4.28125-7.417969-.003906-3.0625-1.652344-5.886719-4.3125-7.398438l-6.964844-4.019531c6.175781-8.738281 13.792969-16.367187 22.519531-22.5625zm-101.855469 165.46875-7.515624-1.21875c-10.859376-1.867187-21.953126-1.894531-32.820313-.078125 5.414063-5.59375 11.554687-10.4375 18.261719-14.394531 8.808594-4.453125 18.347656-7.285156 28.160156-8.363281 17.898438-1.472656 34.769531-8.960938 47.863281-21.25 1.6875 3.890625 3.597657 7.675781 5.726563 11.34375.085937.179687.085937.375.1875.554687.214844.316407.453125.621094.707031.910157 3.90625 6.589843 8.480469 12.753906 13.652344 18.398437-25.90625 21.933594-43.375 19.148437-74.222657 14.097656zm65.316407 66.089844-7.074219 2.707031c-10.335938 3.800782-19.960938 9.3125-28.46875 16.308594 1.882812-7.550781 4.785156-14.808594 8.628906-21.574219 5.40625-8.253906 12.242188-15.480469 20.1875-21.332031 14.78125-10.273438 25.636719-25.265625 30.78125-42.515625 3.371094 2.542969 6.882813 4.894531 10.519532 7.042969.199218.136718.324218.347656.539062.46875.214844.117187.503906.195312.75.316406 6.761719 3.871094 13.914062 7.019531 21.335938 9.386719-11.480469 31.769531-28.023438 38.125-57.199219 49.191406zm89.597656 24.542969-4.761719 5.855468c-7.023437 8.457032-12.589844 18.027344-16.476562 28.3125-2.144532-7.464843-3.269532-15.1875-3.34375-22.953124.550781-9.863282 2.863281-19.542969 6.824218-28.589844 7.648438-16.234375 9.585938-34.578125 5.496094-52.050782 12.410156 1.597657 25 .992188 37.199219-1.792968 5.945313 33.269531-5.214844 47.019531-24.945313 71.21875zm89.890625-23.558594-1.21875 7.5c-1.863281 10.859375-1.890625 21.953125-.078125 32.820312-5.597656-5.394531-10.441406-11.523437-14.394531-18.21875-4.453125-8.8125-7.285156-18.347656-8.363282-28.160156-1.472656-17.894531-8.960937-34.765625-21.246093-47.855468 3.816406-1.660157 7.535156-3.53125 11.144531-5.609376.246094-.117187.511719-.167968.75-.3125.238281-.144531.339844-.335937.535156-.46875 6.726563-3.964843 13.019532-8.625 18.773438-13.902343 21.933594 25.890625 19.148437 43.382812 14.089844 74.207031zm66.101562-65.332031 2.703126 7.074219c3.8125 10.347656 9.332031 19.980468 16.332031 28.5-7.554688-1.894532-14.820313-4.808594-21.597657-8.652344-8.257812-5.410156-15.480468-12.25-21.332031-20.199219-10.261719-14.792969-25.246093-25.660156-42.496093-30.8125 2.457031-3.253906 4.738281-6.644531 6.828124-10.148437.253907-.289063.488282-.59375.707032-.910157.101562-.179687.101562-.375.1875-.554687 3.925781-6.824219 7.113281-14.046875 9.507812-21.546875 31.714844 11.535156 38.082032 28.074219 49.148438 57.25zm30.386719-84.832031c8.472657 7.035156 18.066407 12.59375 28.378907 16.453124-7.492188 2.160157-15.242188 3.289063-23.039063 3.363282-9.851563-.554688-19.527344-2.867188-28.570313-6.828125-16.234374-7.652344-34.578124-9.585938-52.050781-5.484375 1.609375-12.410156 1.003907-25.007813-1.785156-37.207032 33.28125-5.972656 47.046875 5.195313 71.21875 24.925782zm-29.433593-94.660157 7.519531 1.222657c10.859375 1.855468 21.953125 1.882812 32.820312.074218-5.414062 5.597656-11.558593 10.441406-18.261719 14.398438-8.8125 4.453125-18.347656 7.285156-28.160156 8.363281-17.898437 1.46875-34.769531 8.957031-47.863281 21.246094-1.6875-3.886719-3.601563-7.675781-5.726563-11.339844-.085937-.179687-.085937-.375-.1875-.554687-.101562-.179688-.34375-.34375-.488281-.546876-3.957031-6.726562-8.613281-13.019531-13.890625-18.773437 25.933594-21.921875 43.398438-19.148437 74.238282-14.089844zm-65.3125-66.089843 7.074218-2.703126c10.335938-3.804687 19.957032-9.316406 28.464844-16.308593-1.878906 7.550781-4.78125 14.808593-8.625 21.570312-5.410156 8.257813-12.246094 15.480469-20.191406 21.335938-14.78125 10.273437-25.632813 25.261719-30.777344 42.511719-3.375-2.542969-6.886719-4.890626-10.523438-7.039063-.195312-.136719-.324218-.351563-.535156-.46875-.214844-.121094-.367187-.101563-.546875-.1875-6.835937-3.949219-14.074219-7.152344-21.589843-9.558594 11.527343-31.726562 28.074218-38.085937 57.25-49.152343zm-89.59375-24.542969 4.761718-5.851563c7.023438-8.460937 12.59375-18.027344 16.480469-28.3125 2.140625 7.464844 3.265625 15.1875 3.335937 22.953125-.550781 9.859375-2.863281 19.542969-6.828124 28.585938-7.648438 16.234375-9.582032 34.578125-5.496094 52.054687-12.40625-1.601562-25-.992187-37.195313 1.792969-5.949219-33.273437 5.214844-47.019531 24.941407-71.222656zm-89.886719 23.5625 1.21875-7.5c1.855469-10.847657 1.878906-21.925781.066406-32.777344 5.601563 5.394531 10.445313 11.523437 14.398437 18.21875 4.453126 8.808594 7.285157 18.347656 8.363282 28.160156 1.46875 17.894531 8.957031 34.761719 21.246094 47.855469-3.890626 1.691406-7.679688 3.605469-11.347657 5.734375-.179687.085937-.375.085937-.546875.1875s-.34375.332031-.539062.46875c-6.726563 3.964844-13.019532 8.621094-18.773438 13.902344-21.929687-25.933594-19.148437-43.429688-14.085937-74.25zm-66.101563 65.332031-2.703125-7.074219c-3.8125-10.347656-9.332031-19.984375-16.335937-28.503906 7.558594 1.898437 14.824218 4.808594 21.601562 8.65625 8.253906 5.40625 15.480469 12.246094 21.332032 20.195313 10.257812 14.796874 25.246093 25.660156 42.496093 30.816406-2.539062 3.363281-4.886719 6.871094-7.03125 10.503906-.144531.203125-.359375.332031-.488281.554688-.125.222656-.101562.375-.1875.554687-3.933594 6.820313-7.128906 14.042969-9.53125 21.546875-31.71875-11.539062-38.082031-28.074219-49.152344-57.25zm-7.167968 71.839844c16.234374 7.652344 34.582031 9.582031 52.054687 5.480468-1.609375 12.410157-1.007813 25.011719 1.78125 37.214844-33.277344 5.972656-47.050781-5.199218-71.21875-24.929687l-5.863281-4.769531c-8.457032-7.023438-18.03125-12.589844-28.320313-16.46875 7.472657-2.148438 15.203125-3.277344 22.980469-3.351563 9.859375.550781 19.542969 2.863281 28.585938 6.824219zm0 0"/><path fill="#62C953" d="m213.335938 230.890625c.167968 0 17.066406.476563 17.066406 8.53125v25.601563c0 9.425781 7.640625 17.066406 17.066406 17.066406h17.066406c9.425782 0 17.066406-7.640625 17.066406-17.066406v-25.601563c0-8.019531 16.769532-8.53125 17.066407-8.53125 4.710937 0 8.53125-3.820313 8.53125-8.535156 0-4.710938-3.820313-8.53125-8.53125-8.53125-11.808594 0-34.132813 5.347656-34.132813 25.597656v25.601563h-17.066406v-25.601563c0-20.25-22.324219-25.597656-34.132812-25.597656-4.714844 0-8.535157 3.820312-8.535157 8.53125 0 4.714843 3.820313 8.535156 8.535157 8.535156zm0 0"/><path fill="#62C953" d="m264.535156 299.15625h-17.066406c-4.714844 0-8.535156 3.820312-8.535156 8.53125 0 4.714844 3.820312 8.535156 8.535156 8.535156h17.066406c4.710938 0 8.53125-3.820312 8.53125-8.535156 0-4.710938-3.820312-8.53125-8.53125-8.53125zm0 0"/></svg>